<svg viewBox="0 0 1200 900" fill="none" xmlns="http://www.w3.org/2000/svg"><path fill="#fff" d="M0 0h1200v900H0z"></path><path fill-rule="evenodd" clip-rule="evenodd" d="M206.494 407.891a9.101 9.101 0 019.102-9.101h938.394c5.03 0 9.1 4.074 9.1 9.101v284.797a9.097 9.097 0 01-9.1 9.101H215.596a9.101 9.101 0 01-9.102-9.101V407.891z" fill="#EEF8F9"></path><path fill-rule="evenodd" clip-rule="evenodd" d="M206.907 256.696a9.102 9.102 0 019.102-9.101h254.514a9.102 9.102 0 019.102 9.101v121.403a9.102 9.102 0 01-9.102 9.101H216.009a9.102 9.102 0 01-9.102-9.101V256.696z" fill="#F0F0F0"></path><path d="M1054.17 364.455h-3.51v16.607h3.51v-16.607zm16.78 0h-3.5V374.9h-.14l-7.17-10.445h-3.08v16.607h3.51V370.61h.12l7.22 10.452h3.04v-16.607zm2.27 2.895h5.08v13.712h3.47V367.35h5.09v-2.895h-13.64v2.895zm15.88 13.712h11.22v-2.894h-7.71v-3.966h7.11v-2.895h-7.11v-3.957h7.68v-2.895h-11.19v16.607zm13.98 0h3.51v-5.887h2.57l3.14 5.887h3.88l-3.53-6.454c1.89-.811 2.94-2.457 2.94-4.728 0-3.3-2.18-5.425-5.95-5.425h-6.56v16.607zm3.51-8.709v-5.027h2.37c2.03 0 3.01.9 3.01 2.554 0 1.646-.98 2.473-2.99 2.473h-2.39zm25.37-7.898h-3.5V374.9h-.14l-7.17-10.445h-3.08v16.607h3.51V370.61h.12l7.23 10.452h3.03v-16.607zm5.76 16.607l1.24-3.786h5.99l1.23 3.786h3.76l-5.72-16.607h-4.53l-5.73 16.607h3.76zm2.13-6.527l2.04-6.285h.13l2.04 6.285h-4.21zm12.09 6.527h10.63v-2.894h-7.12v-13.713h-3.51v16.607zm-636.246-5.709V364.13h-2.895v7.712h-3.965v-7.104h-2.895v7.104h-3.958v-7.679h-2.895v11.19h16.608zm-16.608-17.274v3.981l8.304-5.1 8.304 5.198v-4.022l-5.668-3.406v-.13l5.668-3.406v-4.038l-8.304 5.182-8.304-5.069v3.966l5.661 3.365v.13l-5.661 3.349zm2.895-12.399v-5.084h13.713v-3.471h-13.713v-5.085h-2.895v13.64h2.895zm13.713-15.886v-11.223h-2.895v7.712h-3.965v-7.104h-2.895v7.104h-3.958v-7.679h-2.895v11.19h16.608zm0-13.982v-3.511h-5.887v-2.563l5.887-3.146v-3.876l-6.455 3.527c-.811-1.889-2.457-2.935-4.728-2.935-3.3 0-5.425 2.181-5.425 5.952v6.552h16.608zm-8.709-3.511h-5.028v-2.368c0-2.027.9-3.009 2.554-3.009 1.647 0 2.474.982 2.474 2.993v2.384zm-7.899-25.366v3.495h10.445v.146l-10.445 7.169v3.081h16.608v-3.511h-10.453v-.122l10.453-7.225v-3.033h-16.608zm16.608-5.763l-3.787-1.233v-5.992l3.787-1.233v-3.763l-16.608 5.725v4.525l16.608 5.734v-3.763zm-6.528-2.125l-6.285-2.043v-.13l6.285-2.043v4.216zm6.528-12.094v-10.632h-2.895v7.12h-13.713v3.512h16.608z" fill="#000"></path><path d="M121 549.658h-3.343v6.685H121v-6.685zm491.447 229.111l19.299-33.425h-38.597l19.298 33.425zM1103.89 553h3.35v-3.342h-3.35V553zm0 162.366v3.342h3.35v-3.342h-3.35zm-491.443 0v-3.343h-3.342v3.343h3.342zM121 556.343h491.447v-6.685H121v6.685zm491.447 0h491.443v-6.685H612.447v6.685zM1100.55 553v162.366h6.69V553h-6.69zm3.34 159.023H612.447v6.685h491.443v-6.685zm-494.785 3.343v33.32h6.685v-33.32h-6.685zM111.879 314.183h-3.343v6.685h3.343v-6.685zm124.799 3.342l-33.426-19.298v38.597l33.426-19.299zm-124.799 3.343h94.716v-6.685h-94.716v6.685zm502.823-172.837v-3.342h-6.685v3.342h6.685zM116 246.513l19.299-33.426H96.702L116 246.513zm495.359-68.293v3.343h3.343v-3.343h-3.343zm-495.359 0v-3.342h-3.342v3.342H116zm492.017-30.189v30.189h6.685v-30.189h-6.685zm3.342 26.847H116v6.685h495.359v-6.685zm-498.701 3.342v38.209h6.685V178.22h-6.685z" fill="#B8E986"></path><rect x="37" y="247.87" width="149.759" height="453.919" rx="3.749" fill="#53777A"></rect><path d="M120.528 545.484l-3.892-1.266v-6.159l3.892-1.267v-3.867l-17.069 5.884v4.65l17.069 5.893v-3.868zm-6.709-2.183l-6.459-2.1v-.134l6.459-2.1v4.334zm6.709-11.683v-3.609h-5.534v-3.034c0-3.926-2.342-6.209-5.75-6.209-3.393 0-5.785 2.242-5.785 6.117v6.735h17.069zm-8.426-3.609h-5.692v-2.434c0-2.084 1.133-3.092 2.834-3.092 1.691 0 2.858 1.008 2.858 3.075v2.451zm-8.643-14.449v3.609h17.069v-3.609h-17.069zm17.069-9.848l-3.892-1.267v-6.159l3.892-1.267v-3.867l-17.069 5.884v4.651l17.069 5.892v-3.867zm-6.709-2.183l-6.459-2.101v-.133l6.459-2.1v4.334zm11.777-16.789c0-3.658-1.667-6.259-4.943-6.259h-12.926v3.526h2.15v.133c-1.042.475-2.317 1.517-2.317 3.659 0 2.809 2.184 5.184 6.542 5.184 4.259 0 6.243-2.309 6.243-5.192 0-2.042-1.025-3.184-2.084-3.651v-.15h2.342c1.759 0 2.442 1.125 2.442 2.667 0 1.567-.683 2.359-1.458 2.65l.442 3.284c2.016-.425 3.567-2.4 3.567-5.851zm-7.918-.075c0 1.742-1.384 2.692-3.592 2.692-2.175 0-3.701-.933-3.701-2.692 0-1.725 1.459-2.692 3.701-2.692 2.258 0 3.592.984 3.592 2.692zm7.918-14.029c0-3.659-1.667-6.259-4.943-6.259h-12.926v3.525h2.15v.134c-1.042.475-2.317 1.516-2.317 3.658 0 2.809 2.184 5.184 6.542 5.184 4.259 0 6.243-2.308 6.243-5.192 0-2.042-1.025-3.184-2.084-3.65v-.15h2.342c1.759 0 2.442 1.125 2.442 2.667 0 1.566-.683 2.358-1.458 2.65l.442 3.284c2.016-.425 3.567-2.401 3.567-5.851zm-7.918-.075c0 1.742-1.384 2.692-3.592 2.692-2.175 0-3.701-.934-3.701-2.692 0-1.725 1.459-2.692 3.701-2.692 2.258 0 3.592.983 3.592 2.692zm2.85-8.262v-3.551h-7.242c-1.575 0-2.659-1.15-2.659-2.717 0-.491.083-1.166.192-1.5h-3.151a5.336 5.336 0 00-.125 1.117c0 1.434.834 2.609 2.417 3.075v.134h-2.233v3.442h12.801zm.25-14.094c0-3.167-1.542-5.301-3.917-5.801l-.217 3.284c.976.358 1.484 1.275 1.484 2.458 0 1.776-1.175 2.901-3.084 2.901h-.008v-8.718h-.975c-4.351 0-6.501 2.634-6.501 6.017 0 3.768 2.675 6.21 6.626 6.21 4.059 0 6.592-2.409 6.592-6.351zm-7.942 2.842c-1.459-.075-2.626-1.184-2.626-2.759 0-1.542 1.1-2.609 2.626-2.617v5.376zm12.76-16.055c0-3.659-1.667-6.259-4.943-6.259h-12.926v3.525h2.15v.134c-1.042.475-2.317 1.517-2.317 3.659 0 2.808 2.184 5.184 6.542 5.184 4.259 0 6.243-2.309 6.243-5.193 0-2.042-1.025-3.184-2.084-3.65v-.15h2.342c1.759 0 2.442 1.125 2.442 2.667 0 1.567-.683 2.358-1.458 2.65l.442 3.284c2.016-.425 3.567-2.4 3.567-5.851zm-7.918-.075c0 1.742-1.384 2.692-3.592 2.692-2.175 0-3.701-.933-3.701-2.692 0-1.725 1.459-2.692 3.701-2.692 2.258 0 3.592.983 3.592 2.692zm3.092-11.912c0-1.892-.825-3.118-2.017-3.743v-.1h1.775v-3.367h-8.634c-3.051 0-4.334 2.584-4.334 5.434 0 3.067 1.467 5.084 3.8 5.576l.267-3.284c-.85-.241-1.475-1-1.475-2.275 0-1.209.608-1.9 1.659-1.9h.05c.825 0 .933.875 1.15 3.1.233 2.534 1.083 4.809 3.942 4.809 2.534 0 3.817-1.808 3.817-4.25zm-2.45-1.017c0 1.092-.509 1.875-1.484 1.875-1 0-1.492-.825-1.667-2.075-.108-.775-.291-2.042-.575-2.467h1.359c1.342 0 2.367 1.108 2.367 2.667zm-10.593-15.009v2.409h-3.067v3.55h3.067v1.75h2.667v-1.75h6.667c2.509.017 3.751-1.692 3.642-4.267a6.878 6.878 0 00-.333-1.925l-2.642.558c.033.175.117.55.117.883 0 .709-.267 1.201-1.251 1.201h-6.2v-2.409h-2.667zm12.801-1.565v-3.551h-12.801v3.551h12.801zm-14.452-1.784c0-1.058-.808-1.925-1.8-1.925-.983 0-1.792.867-1.792 1.925 0 1.05.809 1.917 1.792 1.917.992 0 1.8-.867 1.8-1.917zm14.702-9.648c0-3.883-2.658-6.3-6.601-6.3-3.967 0-6.617 2.417-6.617 6.3 0 3.884 2.65 6.301 6.617 6.301 3.943 0 6.601-2.417 6.601-6.301zm-2.75-.016c0 1.792-1.642 2.708-3.876 2.708-2.233 0-3.883-.916-3.883-2.708 0-1.759 1.65-2.676 3.883-2.676 2.234 0 3.876.917 3.876 2.676zm-4.901-11.396c-1.65-.008-2.617-.992-2.617-2.425 0-1.426.934-2.284 2.501-2.276h7.517v-3.55h-8.151c-2.983 0-4.817 1.75-4.817 4.417 0 1.9.933 3.275 2.425 3.851v.15h-2.258v3.383h12.801v-3.55h-7.401z" fill="#fff"></path><rect x="239" y="430.575" width="149.972" height="245.41" rx="3.749" fill="#53777A"></rect><path d="M322.796 630.013l-3.9-1.269v-6.171l3.9-1.269v-3.875l-17.103 5.895v4.66l17.103 5.904v-3.875zm-6.723-2.188l-6.472-2.104v-.134l6.472-2.104v4.342zm1.261-19.864c1.721-.009 2.622 1.169 2.622 2.446 0 1.345-.943 2.213-2.455 2.222h-7.532v3.557h8.167c2.998-.008 4.827-1.762 4.827-4.342 0-1.929-.994-3.316-2.497-3.892v-.133h2.33v-3.416h-12.827v3.558h7.365zm-7.365-12.477v2.413h-3.073v3.558h3.073v1.753h2.672v-1.753h6.681c2.513.016 3.758-1.695 3.649-4.276a6.905 6.905 0 00-.334-1.929l-2.647.56c.033.175.117.551.117.885 0 .71-.268 1.202-1.253 1.202h-6.213v-2.413h-2.672zm5.411-5.401c-1.653-.009-2.622-1.019-2.622-2.472 0-1.445.927-2.297 2.505-2.288h7.533v-3.558h-8.167c-3.007-.008-4.827 1.762-4.827 4.434 0 1.946.918 3.249 2.43 3.833v.151h-6.539v3.457h17.103v-3.557h-7.416zm7.666-16.214c0-3.173-1.545-5.311-3.925-5.812l-.217 3.29c.977.359 1.487 1.278 1.487 2.464 0 1.778-1.178 2.906-3.09 2.906h-.008v-8.735h-.978c-4.359 0-6.513 2.639-6.513 6.029 0 3.775 2.68 6.221 6.639 6.221 4.067 0 6.605-2.413 6.605-6.363zm-7.958 2.848c-1.461-.076-2.631-1.186-2.631-2.764 0-1.545 1.103-2.614 2.631-2.623v5.387zm.292-13.865c-1.653-.009-2.622-.994-2.622-2.43 0-1.428.935-2.288 2.505-2.28h7.533v-3.557h-8.167c-2.99 0-4.827 1.753-4.827 4.425 0 1.904.935 3.282 2.43 3.858v.151h-2.263v3.39h12.827v-3.557h-7.416zm-5.411-17.145v2.413h-3.073v3.558h3.073v1.754h2.672v-1.754h6.681c2.513.017 3.758-1.695 3.649-4.276a6.905 6.905 0 00-.334-1.929l-2.647.56c.033.175.117.551.117.885 0 .71-.268 1.202-1.253 1.202h-6.213v-2.413h-2.672zm12.827-1.568v-3.558h-12.827v3.558h12.827zm-14.481-1.787c0-1.061-.81-1.929-1.803-1.929-.986 0-1.796.868-1.796 1.929 0 1.052.81 1.92 1.796 1.92.993 0 1.803-.868 1.803-1.92zm14.731-9.667c0-3.415-2.004-5.562-4.952-5.729v3.357c1.37.209 2.138 1.111 2.138 2.33 0 1.662-1.395 2.739-3.85 2.739-2.421 0-3.808-1.085-3.808-2.739 0-1.302.86-2.137 2.138-2.33v-3.357c-2.964.151-4.91 2.397-4.91 5.746 0 3.891 2.697 6.296 6.63 6.296 3.9 0 6.614-2.363 6.614-6.313zm-.008-10.915c0-1.896-.827-3.123-2.021-3.749v-.101h1.779v-3.373h-8.652c-3.056 0-4.342 2.588-4.342 5.444 0 3.073 1.47 5.094 3.808 5.587l.267-3.29c-.852-.242-1.478-1.002-1.478-2.28 0-1.211.61-1.904 1.662-1.904h.05c.827 0 .935.877 1.152 3.107.234 2.538 1.086 4.818 3.95 4.818 2.539 0 3.825-1.812 3.825-4.259zm-2.455-1.019c0 1.094-.51 1.879-1.487 1.879-1.002 0-1.495-.827-1.67-2.079-.108-.777-.292-2.046-.576-2.472h1.361c1.345 0 2.372 1.111 2.372 2.672zm-10.614-15.038v2.413h-3.073v3.558h3.073v1.754h2.672v-1.754h6.681c2.513.017 3.758-1.695 3.649-4.276a6.905 6.905 0 00-.334-1.929l-2.647.56c.033.175.117.551.117.885 0 .71-.268 1.202-1.253 1.202h-6.213v-2.413h-2.672zm12.827-1.568v-3.558h-12.827v3.558h12.827zm-14.481-1.787c0-1.061-.81-1.929-1.803-1.929-.986 0-1.796.868-1.796 1.929 0 1.052.81 1.92 1.796 1.92.993 0 1.803-.868 1.803-1.92zm14.731-9.667c0-3.891-2.664-6.313-6.614-6.313-3.975 0-6.63 2.422-6.63 6.313 0 3.892 2.655 6.313 6.63 6.313 3.95 0 6.614-2.421 6.614-6.313zm-2.756-.017c0 1.796-1.645 2.714-3.883 2.714s-3.891-.918-3.891-2.714c0-1.762 1.653-2.68 3.891-2.68s3.883.918 3.883 2.68zm-4.91-11.418c-1.653-.008-2.622-.993-2.622-2.43 0-1.428.935-2.288 2.505-2.28h7.533v-3.557h-8.167c-2.99 0-4.827 1.754-4.827 4.426 0 1.904.935 3.282 2.43 3.858v.15h-2.263v3.391h12.827v-3.558h-7.416z" fill="#fff"></path><g clip-path="url(#clip0_19_1353)"><rect x="626.557" y="430.964" width="149.972" height="245.41" rx="3.749" fill="#53777A"></rect><path d="M654.264 516.615v17.102h3.507v-11.173h.142l4.426 11.09h2.388l4.426-11.048h.142v11.131h3.507v-17.102h-4.459l-4.71 11.491h-.2l-4.71-11.491h-4.459zm28.927 11.641c.009 1.72-1.169 2.622-2.446 2.622-1.345 0-2.213-.944-2.222-2.455v-7.532h-3.557v8.167c.008 2.997 1.762 4.826 4.342 4.826 1.929 0 3.315-.993 3.892-2.497h.133v2.33h3.416v-12.826h-3.558v7.365zm12.477-7.365h-2.413v-3.074h-3.558v3.074h-1.754v2.672h1.754v6.68c-.017 2.514 1.695 3.758 4.276 3.65a6.943 6.943 0 001.929-.334l-.56-2.648c-.175.034-.551.117-.885.117-.71 0-1.202-.267-1.202-1.252v-6.213h2.413v-2.672zm5.226 13.068c1.896 0 3.123-.826 3.749-2.02h.101v1.778h3.373v-8.651c0-3.056-2.588-4.342-5.444-4.342-3.073 0-5.094 1.469-5.587 3.807l3.29.268c.242-.852 1.002-1.478 2.28-1.478 1.211 0 1.904.609 1.904 1.661v.051c0 .826-.877.935-3.107 1.152-2.538.234-4.818 1.086-4.818 3.95 0 2.538 1.812 3.824 4.259 3.824zm1.019-2.455c-1.094 0-1.879-.509-1.879-1.486 0-1.002.827-1.495 2.079-1.67.777-.109 2.046-.293 2.472-.576v1.361c0 1.344-1.111 2.371-2.672 2.371zm15.038-10.613h-2.413v-3.074h-3.558v3.074h-1.754v2.672h1.754v6.68c-.017 2.514 1.695 3.758 4.276 3.65a6.943 6.943 0 001.929-.334l-.56-2.648c-.175.034-.551.117-.885.117-.71 0-1.202-.267-1.202-1.252v-6.213h2.413v-2.672zm1.568 12.826h3.558v-12.826h-3.558v12.826zm1.787-14.48c1.061 0 1.929-.81 1.929-1.804 0-.985-.868-1.795-1.929-1.795-1.052 0-1.92.81-1.92 1.795 0 .994.868 1.804 1.92 1.804zm9.667 14.731c3.891 0 6.313-2.664 6.313-6.614 0-3.975-2.422-6.63-6.313-6.63-3.891 0-6.313 2.655-6.313 6.63 0 3.95 2.422 6.614 6.313 6.614zm.017-2.756c-1.796 0-2.714-1.645-2.714-3.883s.918-3.891 2.714-3.891c1.762 0 2.68 1.653 2.68 3.891s-.918 3.883-2.68 3.883zm11.418-4.91c.008-1.654.994-2.622 2.43-2.622 1.428 0 2.288.935 2.28 2.505v7.532h3.557v-8.167c0-2.989-1.754-4.826-4.426-4.826-1.904 0-3.282.935-3.858 2.43h-.15v-2.263h-3.391v12.826h3.558v-7.415zm-90.574 35.657c1.896 0 3.124-.826 3.75-2.02h.1v1.778h3.374v-8.651c0-3.056-2.589-4.342-5.445-4.342-3.073 0-5.094 1.469-5.586 3.807l3.29.268c.242-.852 1.002-1.478 2.28-1.478 1.21 0 1.903.609 1.903 1.661v.051c0 .826-.876.935-3.106 1.152-2.539.234-4.818 1.086-4.818 3.95 0 2.538 1.812 3.824 4.258 3.824zm1.019-2.455c-1.094 0-1.879-.509-1.879-1.486 0-1.002.827-1.495 2.08-1.67.776-.109 2.046-.293 2.472-.576v1.361c0 1.344-1.111 2.371-2.673 2.371zm12.942 2.422c2.071 0 3.149-1.194 3.641-2.263h.151v2.054h3.507v-17.102h-3.549v6.43h-.109c-.476-1.044-1.503-2.321-3.649-2.321-2.814 0-5.194 2.187-5.194 6.597 0 4.292 2.28 6.605 5.202 6.605zm1.128-2.831c-1.746 0-2.698-1.553-2.698-3.791 0-2.221.936-3.75 2.698-3.75 1.728 0 2.697 1.462 2.697 3.75 0 2.288-.985 3.791-2.697 3.791zm8.347 2.622h3.557v-7.699c0-1.42.902-2.363 2.088-2.363 1.169 0 1.954.801 1.954 2.062v8h3.449v-7.833c0-1.327.76-2.229 2.054-2.229 1.136 0 1.988.709 1.988 2.137v7.925h3.549v-8.626c0-2.781-1.654-4.367-4.042-4.367-1.879 0-3.34.96-3.866 2.43h-.134c-.409-1.487-1.72-2.43-3.482-2.43-1.729 0-3.04.918-3.574 2.43h-.151v-2.263h-3.39v12.826zm20.7 0h3.557v-12.826h-3.557v12.826zm1.787-14.48c1.06 0 1.929-.81 1.929-1.804 0-.985-.869-1.795-1.929-1.795-1.052 0-1.921.81-1.921 1.795 0 .994.869 1.804 1.921 1.804zm14.543 5.311c-.317-2.363-2.221-3.824-5.461-3.824-3.282 0-5.445 1.519-5.436 3.991-.009 1.921 1.202 3.165 3.707 3.666l2.222.443c1.119.225 1.628.634 1.645 1.277-.017.76-.844 1.303-2.088 1.303-1.269 0-2.113-.543-2.33-1.587l-3.499.184c.334 2.455 2.422 3.967 5.821 3.967 3.323 0 5.703-1.695 5.712-4.226-.009-1.854-1.22-2.964-3.708-3.474l-2.322-.467c-1.194-.259-1.636-.668-1.628-1.286-.008-.768.86-1.27 1.962-1.27 1.236 0 1.971.677 2.147 1.504l3.256-.201zm12.456 0c-.317-2.363-2.221-3.824-5.461-3.824-3.282 0-5.445 1.519-5.437 3.991-.008 1.921 1.203 3.165 3.708 3.666l2.221.443c1.119.225 1.629.634 1.645 1.277-.016.76-.843 1.303-2.087 1.303-1.27 0-2.113-.543-2.33-1.587l-3.499.184c.334 2.455 2.422 3.967 5.82 3.967 3.324 0 5.704-1.695 5.712-4.226-.008-1.854-1.219-2.964-3.707-3.474l-2.322-.467c-1.194-.259-1.637-.668-1.628-1.286-.009-.768.86-1.27 1.962-1.27 1.236 0 1.971.677 2.146 1.504l3.257-.201zm1.783 9.169h3.558v-12.826h-3.558v12.826zm1.788-14.48c1.06 0 1.929-.81 1.929-1.804 0-.985-.869-1.795-1.929-1.795-1.053 0-1.921.81-1.921 1.795 0 .994.868 1.804 1.921 1.804zm9.666 14.731c3.892 0 6.313-2.664 6.313-6.614 0-3.975-2.421-6.63-6.313-6.63-3.891 0-6.313 2.655-6.313 6.63 0 3.95 2.422 6.614 6.313 6.614zm.017-2.756c-1.796 0-2.714-1.645-2.714-3.883s.918-3.891 2.714-3.891c1.762 0 2.68 1.653 2.68 3.891s-.918 3.883-2.68 3.883zm11.418-4.91c.008-1.654.994-2.622 2.43-2.622 1.428 0 2.288.935 2.28 2.505v7.532h3.557v-8.167c0-2.989-1.754-4.826-4.426-4.826-1.904 0-3.282.935-3.858 2.43h-.15v-2.263h-3.391v12.826h3.558v-7.415zm-98.491 35.666c3.415 0 5.561-2.004 5.728-4.952h-3.357c-.209 1.369-1.111 2.138-2.33 2.138-1.662 0-2.739-1.395-2.739-3.85 0-2.422 1.086-3.808 2.739-3.808 1.303 0 2.138.86 2.33 2.138h3.357c-.15-2.965-2.397-4.91-5.745-4.91-3.892 0-6.297 2.697-6.297 6.63 0 3.9 2.364 6.614 6.314 6.614zm13.052 0c3.892 0 6.313-2.664 6.313-6.614 0-3.975-2.421-6.63-6.313-6.63-3.891 0-6.313 2.655-6.313 6.63 0 3.95 2.422 6.614 6.313 6.614zm.017-2.756c-1.795 0-2.714-1.645-2.714-3.883s.919-3.891 2.714-3.891c1.762 0 2.681 1.653 2.681 3.891s-.919 3.883-2.681 3.883zm11.418-4.91c.008-1.654.994-2.622 2.43-2.622 1.428 0 2.288.935 2.28 2.505v7.532h3.557v-8.167c0-2.989-1.753-4.826-4.426-4.826-1.904 0-3.281.935-3.858 2.43h-.15v-2.263h-3.39v12.826h3.557v-7.415zm17.145-5.411h-2.414v-3.074h-3.557v3.074h-1.754v2.672h1.754v6.68c-.017 2.514 1.695 3.758 4.276 3.65a6.95 6.95 0 001.929-.334l-.56-2.648c-.175.034-.551.117-.885.117-.71 0-1.203-.267-1.203-1.252v-6.213h2.414v-2.672zm1.568 12.826h3.558v-7.257c0-1.578 1.152-2.663 2.722-2.663.493 0 1.169.083 1.503.192v-3.157a5.348 5.348 0 00-1.119-.125c-1.436 0-2.614.835-3.081 2.422h-.134v-2.238h-3.449v12.826zm14.072.251c3.891 0 6.313-2.664 6.313-6.614 0-3.975-2.422-6.63-6.313-6.63-3.892 0-6.313 2.655-6.313 6.63 0 3.95 2.421 6.614 6.313 6.614zm.016-2.756c-1.795 0-2.714-1.645-2.714-3.883s.919-3.891 2.714-3.891c1.762 0 2.681 1.653 2.681 3.891s-.919 3.883-2.681 3.883zm11.419-14.597h-3.558v17.102h3.558v-17.102zm5.658 0h-3.558v17.102h3.558v-17.102zm7.946 17.353c3.173 0 5.311-1.545 5.812-3.925l-3.29-.217c-.359.977-1.278 1.486-2.463 1.486-1.779 0-2.907-1.177-2.907-3.09v-.008h8.735v-.977c0-4.359-2.638-6.513-6.029-6.513-3.774 0-6.221 2.68-6.221 6.638 0 4.067 2.413 6.606 6.363 6.606zm-2.848-7.958c.076-1.462 1.186-2.631 2.765-2.631 1.544 0 2.613 1.102 2.622 2.631H729.4zm10.308 7.707h3.557v-7.257c0-1.578 1.153-2.663 2.723-2.663.492 0 1.169.083 1.503.192v-3.157a5.356 5.356 0 00-1.119-.125c-1.437 0-2.614.835-3.082 2.422h-.133v-2.238h-3.449v12.826zm19.545-9.169c-.317-2.363-2.221-3.824-5.461-3.824-3.282 0-5.445 1.519-5.436 3.991-.009 1.921 1.202 3.165 3.707 3.666l2.222.443c1.119.225 1.628.634 1.645 1.277-.017.76-.844 1.303-2.088 1.303-1.269 0-2.113-.543-2.33-1.587l-3.499.184c.334 2.455 2.422 3.967 5.821 3.967 3.323 0 5.703-1.695 5.712-4.226-.009-1.854-1.22-2.964-3.708-3.474l-2.322-.467c-1.194-.259-1.636-.668-1.628-1.286-.008-.768.86-1.27 1.962-1.27 1.236 0 1.971.677 2.147 1.504l3.256-.201z" fill="#fff"></path></g><g clip-path="url(#clip1_19_1353)"><rect x="865.864" y="430.963" width="149.972" height="245.41" rx="3.749" fill="#53777A"></rect><path d="M891.267 516.615h-4.017l5.904 17.102h4.66l5.896-17.102h-4.009l-4.142 12.994h-.158l-4.134-12.994zm15.919 17.344c1.896 0 3.123-.826 3.75-2.02h.1v1.778h3.374v-8.651c0-3.056-2.589-4.342-5.445-4.342-3.073 0-5.094 1.469-5.587 3.807l3.29.268c.243-.852 1.002-1.478 2.28-1.478 1.211 0 1.904.609 1.904 1.661v.051c0 .826-.877.935-3.106 1.152-2.539.234-4.819 1.086-4.819 3.95 0 2.538 1.812 3.824 4.259 3.824zm1.019-2.455c-1.094 0-1.879-.509-1.879-1.486 0-1.002.827-1.495 2.079-1.67.777-.109 2.046-.293 2.472-.576v1.361c0 1.344-1.11 2.371-2.672 2.371zm11.773-14.889h-3.557v17.102h3.557v-17.102zm2.101 17.102h3.557v-12.826h-3.557v12.826zm1.787-14.48c1.06 0 1.929-.81 1.929-1.804 0-.985-.869-1.795-1.929-1.795-1.052 0-1.921.81-1.921 1.795 0 .994.869 1.804 1.921 1.804zm8.597 14.689c2.071 0 3.149-1.194 3.641-2.263h.151v2.054h3.507v-17.102h-3.549v6.43h-.109c-.476-1.044-1.503-2.321-3.649-2.321-2.814 0-5.194 2.187-5.194 6.597 0 4.292 2.28 6.605 5.202 6.605zm1.128-2.831c-1.746 0-2.697-1.553-2.697-3.791 0-2.221.935-3.75 2.697-3.75 1.728 0 2.697 1.462 2.697 3.75 0 2.288-.985 3.791-2.697 3.791zm12.005 2.864c1.895 0 3.123-.826 3.749-2.02h.1v1.778h3.374v-8.651c0-3.056-2.589-4.342-5.445-4.342-3.073 0-5.094 1.469-5.586 3.807l3.29.268c.242-.852 1.002-1.478 2.28-1.478 1.21 0 1.904.609 1.904 1.661v.051c0 .826-.877.935-3.107 1.152-2.539.234-4.818 1.086-4.818 3.95 0 2.538 1.812 3.824 4.259 3.824zm1.018-2.455c-1.094 0-1.879-.509-1.879-1.486 0-1.002.827-1.495 2.08-1.67.776-.109 2.046-.293 2.472-.576v1.361c0 1.344-1.111 2.371-2.673 2.371zm15.039-10.613h-2.414v-3.074h-3.557v3.074h-1.754v2.672h1.754v6.68c-.017 2.514 1.695 3.758 4.275 3.65a6.935 6.935 0 001.929-.334l-.559-2.648c-.176.034-.551.117-.885.117-.71 0-1.203-.267-1.203-1.252v-6.213h2.414v-2.672zm1.568 12.826h3.557v-12.826h-3.557v12.826zm1.787-14.48c1.061 0 1.929-.81 1.929-1.804 0-.985-.868-1.795-1.929-1.795-1.052 0-1.921.81-1.921 1.795 0 .994.869 1.804 1.921 1.804zm9.667 14.731c3.891 0 6.313-2.664 6.313-6.614 0-3.975-2.422-6.63-6.313-6.63-3.892 0-6.314 2.655-6.314 6.63 0 3.95 2.422 6.614 6.314 6.614zm.016-2.756c-1.795 0-2.714-1.645-2.714-3.883s.919-3.891 2.714-3.891c1.762 0 2.681 1.653 2.681 3.891s-.919 3.883-2.681 3.883zm11.418-4.91c.009-1.654.994-2.622 2.43-2.622 1.428 0 2.289.935 2.28 2.505v7.532h3.558v-8.167c0-2.989-1.754-4.826-4.426-4.826-1.904 0-3.282.935-3.858 2.43h-.151v-2.263h-3.39v12.826h3.557v-7.415zm-95.967 35.657c1.896 0 3.123-.826 3.749-2.02h.101v1.778h3.373v-8.651c0-3.056-2.588-4.342-5.444-4.342-3.073 0-5.094 1.469-5.587 3.807l3.29.268c.242-.852 1.002-1.478 2.28-1.478 1.211 0 1.904.609 1.904 1.661v.051c0 .826-.877.935-3.107 1.152-2.538.234-4.818 1.086-4.818 3.95 0 2.538 1.812 3.824 4.259 3.824zm1.019-2.455c-1.094 0-1.879-.509-1.879-1.486 0-1.002.827-1.495 2.079-1.67.777-.109 2.046-.293 2.472-.576v1.361c0 1.344-1.111 2.371-2.672 2.371zm12.942 2.422c2.071 0 3.148-1.194 3.641-2.263h.15v2.054h3.507v-17.102h-3.549v6.43h-.108c-.476-1.044-1.503-2.321-3.649-2.321-2.815 0-5.195 2.187-5.195 6.597 0 4.292 2.28 6.605 5.203 6.605zm1.127-2.831c-1.745 0-2.697-1.553-2.697-3.791 0-2.221.935-3.75 2.697-3.75 1.729 0 2.698 1.462 2.698 3.75 0 2.288-.986 3.791-2.698 3.791zm8.347 2.622h3.558v-7.699c0-1.42.902-2.363 2.087-2.363 1.17 0 1.955.801 1.955 2.062v8h3.448v-7.833c0-1.327.76-2.229 2.055-2.229 1.135 0 1.987.709 1.987 2.137v7.925h3.549v-8.626c0-2.781-1.653-4.367-4.042-4.367-1.878 0-3.34.96-3.866 2.43h-.134c-.409-1.487-1.72-2.43-3.482-2.43-1.728 0-3.039.918-3.574 2.43h-.15v-2.263h-3.391v12.826zm20.7 0h3.558v-12.826h-3.558v12.826zm1.787-14.48c1.061 0 1.929-.81 1.929-1.804 0-.985-.868-1.795-1.929-1.795-1.052 0-1.92.81-1.92 1.795 0 .994.868 1.804 1.92 1.804zm14.544 5.311c-.318-2.363-2.221-3.824-5.462-3.824-3.281 0-5.444 1.519-5.436 3.991-.008 1.921 1.203 3.165 3.708 3.666l2.221.443c1.119.225 1.629.634 1.645 1.277-.016.76-.843 1.303-2.087 1.303-1.27 0-2.113-.543-2.33-1.587l-3.499.184c.334 2.455 2.421 3.967 5.82 3.967 3.324 0 5.704-1.695 5.712-4.226-.008-1.854-1.219-2.964-3.708-3.474l-2.321-.467c-1.194-.259-1.637-.668-1.629-1.286-.008-.768.861-1.27 1.963-1.27 1.236 0 1.971.677 2.146 1.504l3.257-.201zm12.456 0c-.318-2.363-2.222-3.824-5.462-3.824-3.282 0-5.445 1.519-5.436 3.991-.009 1.921 1.202 3.165 3.708 3.666l2.221.443c1.119.225 1.628.634 1.645 1.277-.017.76-.844 1.303-2.088 1.303-1.269 0-2.113-.543-2.33-1.587l-3.499.184c.334 2.455 2.422 3.967 5.821 3.967 3.323 0 5.703-1.695 5.712-4.226-.009-1.854-1.219-2.964-3.708-3.474l-2.321-.467c-1.195-.259-1.637-.668-1.629-1.286-.008-.768.86-1.27 1.963-1.27 1.235 0 1.97.677 2.146 1.504l3.257-.201zm1.783 9.169h3.557v-12.826h-3.557v12.826zm1.787-14.48c1.061 0 1.929-.81 1.929-1.804 0-.985-.868-1.795-1.929-1.795-1.052 0-1.921.81-1.921 1.795 0 .994.869 1.804 1.921 1.804zm9.667 14.731c3.891 0 6.313-2.664 6.313-6.614 0-3.975-2.422-6.63-6.313-6.63-3.892 0-6.314 2.655-6.314 6.63 0 3.95 2.422 6.614 6.314 6.614zm.016-2.756c-1.795 0-2.714-1.645-2.714-3.883s.919-3.891 2.714-3.891c1.762 0 2.681 1.653 2.681 3.891s-.919 3.883-2.681 3.883zm11.418-4.91c.009-1.654.994-2.622 2.43-2.622 1.428 0 2.289.935 2.28 2.505v7.532h3.558v-8.167c0-2.989-1.754-4.826-4.426-4.826-1.904 0-3.282.935-3.858 2.43h-.151v-2.263h-3.39v12.826h3.557v-7.415zm-98.491 35.666c3.415 0 5.562-2.004 5.729-4.952h-3.357c-.209 1.369-1.111 2.138-2.33 2.138-1.662 0-2.739-1.395-2.739-3.85 0-2.422 1.085-3.808 2.739-3.808 1.302 0 2.138.86 2.33 2.138h3.357c-.151-2.965-2.397-4.91-5.746-4.91-3.891 0-6.296 2.697-6.296 6.63 0 3.9 2.363 6.614 6.313 6.614zm13.053 0c3.891 0 6.313-2.664 6.313-6.614 0-3.975-2.422-6.63-6.313-6.63-3.892 0-6.313 2.655-6.313 6.63 0 3.95 2.421 6.614 6.313 6.614zm.016-2.756c-1.795 0-2.714-1.645-2.714-3.883s.919-3.891 2.714-3.891c1.762 0 2.681 1.653 2.681 3.891s-.919 3.883-2.681 3.883zm11.419-4.91c.008-1.654.993-2.622 2.43-2.622 1.428 0 2.288.935 2.279 2.505v7.532h3.558v-8.167c0-2.989-1.754-4.826-4.426-4.826-1.904 0-3.282.935-3.858 2.43h-.15v-2.263h-3.391v12.826h3.558v-7.415zm17.144-5.411h-2.413v-3.074h-3.558v3.074h-1.753v2.672h1.753v6.68c-.016 2.514 1.696 3.758 4.276 3.65a6.935 6.935 0 001.929-.334l-.559-2.648c-.176.034-.552.117-.886.117-.709 0-1.202-.267-1.202-1.252v-6.213h2.413v-2.672zm1.569 12.826h3.557v-7.257c0-1.578 1.152-2.663 2.722-2.663.493 0 1.17.083 1.504.192v-3.157a5.356 5.356 0 00-1.119-.125c-1.437 0-2.614.835-3.082 2.422h-.133v-2.238h-3.449v12.826zm14.071.251c3.892 0 6.313-2.664 6.313-6.614 0-3.975-2.421-6.63-6.313-6.63-3.891 0-6.313 2.655-6.313 6.63 0 3.95 2.422 6.614 6.313 6.614zm.017-2.756c-1.795 0-2.714-1.645-2.714-3.883s.919-3.891 2.714-3.891c1.762 0 2.681 1.653 2.681 3.891s-.919 3.883-2.681 3.883zm11.418-14.597h-3.557v17.102h3.557v-17.102zm5.658 0h-3.557v17.102h3.557v-17.102zm7.947 17.353c3.173 0 5.311-1.545 5.812-3.925l-3.291-.217c-.359.977-1.277 1.486-2.463 1.486-1.779 0-2.906-1.177-2.906-3.09v-.008h8.735v-.977c0-4.359-2.639-6.513-6.029-6.513-3.775 0-6.222 2.68-6.222 6.638 0 4.067 2.414 6.606 6.364 6.606zm-2.848-7.958c.075-1.462 1.186-2.631 2.764-2.631 1.545 0 2.614 1.102 2.622 2.631h-5.386zm10.307 7.707h3.558v-7.257c0-1.578 1.152-2.663 2.722-2.663.493 0 1.169.083 1.503.192v-3.157a5.348 5.348 0 00-1.119-.125c-1.436 0-2.613.835-3.081 2.422h-.134v-2.238h-3.449v12.826zm19.546-9.169c-.317-2.363-2.221-3.824-5.461-3.824-3.282 0-5.445 1.519-5.437 3.991-.008 1.921 1.203 3.165 3.708 3.666l2.221.443c1.119.225 1.629.634 1.645 1.277-.016.76-.843 1.303-2.087 1.303-1.27 0-2.113-.543-2.33-1.587l-3.499.184c.334 2.455 2.422 3.967 5.82 3.967 3.324 0 5.704-1.695 5.712-4.226-.008-1.854-1.219-2.964-3.708-3.474l-2.321-.467c-1.194-.259-1.637-.668-1.628-1.286-.009-.768.86-1.27 1.962-1.27 1.236 0 1.971.677 2.146 1.504l3.257-.201z" fill="#fff"></path></g><g clip-path="url(#clip2_19_1353)"><rect x="660.484" y="247.595" width="127.419" height="58.613" rx="3.185" fill="#53777A"></rect><path d="M691.71 255.451v11.75h2.41v-7.677h.097l3.041 7.62h1.641l3.041-7.591h.097v7.648h2.41v-11.75h-3.064l-3.236 7.895h-.137l-3.236-7.895h-3.064zm19.875 7.998c.006 1.182-.803 1.801-1.681 1.801-.924 0-1.521-.648-1.526-1.686v-5.176h-2.444V264c.005 2.059 1.21 3.316 2.983 3.316 1.325 0 2.278-.683 2.674-1.716h.092v1.601h2.346v-8.813h-2.444v5.061zm8.572-5.061h-1.658v-2.111h-2.444v2.111h-1.205v1.836h1.205v4.59c-.012 1.727 1.165 2.582 2.937 2.508a4.765 4.765 0 001.326-.23l-.385-1.819c-.12.023-.378.081-.608.081-.487 0-.826-.184-.826-.861v-4.269h1.658v-1.836zm3.591 8.98c1.302 0 2.146-.568 2.576-1.389h.069v1.222h2.318v-5.944c0-2.1-1.779-2.983-3.741-2.983-2.111 0-3.5 1.009-3.838 2.616l2.26.184c.166-.586.689-1.016 1.566-1.016.832 0 1.309.419 1.309 1.142v.034c0 .568-.603.643-2.135.792-1.744.161-3.31.746-3.31 2.714 0 1.744 1.245 2.628 2.926 2.628zm.7-1.687c-.752 0-1.291-.35-1.291-1.022 0-.688.568-1.027 1.429-1.147.533-.075 1.405-.201 1.698-.396v.935c0 .924-.763 1.63-1.836 1.63zm10.332-7.293h-1.658v-2.111h-2.444v2.111h-1.205v1.836h1.205v4.59c-.012 1.727 1.164 2.582 2.937 2.508a4.773 4.773 0 001.326-.23l-.385-1.819c-.12.023-.378.081-.608.081-.488 0-.826-.184-.826-.861v-4.269h1.658v-1.836zm1.078 8.813h2.444v-8.813h-2.444v8.813zm1.227-9.949c.729 0 1.326-.556 1.326-1.239 0-.677-.597-1.233-1.326-1.233-.723 0-1.319.556-1.319 1.233 0 .683.596 1.239 1.319 1.239zm6.642 10.121c2.674 0 4.337-1.83 4.337-4.544 0-2.731-1.663-4.555-4.337-4.555-2.674 0-4.338 1.824-4.338 4.555 0 2.714 1.664 4.544 4.338 4.544zm.011-1.893c-1.233 0-1.864-1.13-1.864-2.668 0-1.538.631-2.674 1.864-2.674 1.211 0 1.842 1.136 1.842 2.674s-.631 2.668-1.842 2.668zm7.845-3.374c.006-1.136.683-1.801 1.67-1.801.981 0 1.572.642 1.566 1.721v5.175h2.444v-5.611c0-2.054-1.204-3.316-3.04-3.316-1.309 0-2.255.642-2.651 1.669h-.103v-1.555h-2.33v8.813h2.444v-5.095zm-55.063 22.095h2.582l1.515-5.542h.109l1.514 5.542h2.588l2.392-8.813h-2.467l-1.342 5.887h-.075l-1.446-5.887h-2.427l-1.423 5.921h-.08l-1.365-5.921h-2.473l2.398 8.813zm15.285.172c2.18 0 3.649-1.061 3.993-2.696l-2.26-.149c-.247.671-.878 1.021-1.693 1.021-1.222 0-1.996-.809-1.996-2.123v-.006h6.001v-.671c0-2.995-1.813-4.475-4.142-4.475-2.594 0-4.275 1.841-4.275 4.561 0 2.794 1.658 4.538 4.372 4.538zm-1.956-5.468c.051-1.004.814-1.807 1.899-1.807 1.061 0 1.796.758 1.801 1.807h-3.7zm7.127 5.296h2.41v-1.411h.109c.339.734 1.079 1.555 2.502 1.555 2.008 0 3.574-1.59 3.574-4.539 0-3.029-1.635-4.532-3.569-4.532-1.474 0-2.18.877-2.507 1.595h-.074v-4.418h-2.445v11.75zm2.393-4.406c0-1.572.665-2.576 1.853-2.576 1.211 0 1.853 1.05 1.853 2.576 0 1.537-.654 2.605-1.853 2.605-1.176 0-1.853-1.033-1.853-2.605zm9.763-.689c.005-1.136.7-1.801 1.698-1.801.992 0 1.578.637 1.572 1.721v5.175h2.444v-5.611c.006-2.066-1.21-3.316-3.046-3.316-1.337 0-2.232.631-2.634 1.669h-.103v-4.492h-2.376v11.75h2.445v-5.095zm11.105 5.267c2.674 0 4.337-1.83 4.337-4.544 0-2.731-1.663-4.555-4.337-4.555-2.674 0-4.338 1.824-4.338 4.555 0 2.714 1.664 4.544 4.338 4.544zm.011-1.893c-1.233 0-1.864-1.13-1.864-2.668 0-1.538.631-2.674 1.864-2.674 1.211 0 1.842 1.136 1.842 2.674s-.631 2.668-1.842 2.668zm9.383 1.893c2.674 0 4.338-1.83 4.338-4.544 0-2.731-1.664-4.555-4.338-4.555-2.674 0-4.338 1.824-4.338 4.555 0 2.714 1.664 4.544 4.338 4.544zm.011-1.893c-1.233 0-1.864-1.13-1.864-2.668 0-1.538.631-2.674 1.864-2.674 1.211 0 1.842 1.136 1.842 2.674s-.631 2.668-1.842 2.668zm-29.174 18.721h2.444v-2.8l.66-.751 2.404 3.551h2.863l-3.437-4.997 3.27-3.816h-2.805l-2.823 3.345h-.132v-6.282h-2.444v11.75z" fill="#1F4C50"></path></g><g clip-path="url(#clip3_19_1353)"><rect x="647.742" y="271.804" width="127.419" height="58.613" rx="3.185" fill="#86A9AC"></rect><path d="M678.968 278.705v11.75h2.41v-7.677h.098l3.041 7.62h1.64l3.041-7.591h.098v7.648h2.41v-11.75h-3.064l-3.236 7.894h-.138l-3.236-7.894h-3.064zm19.875 7.998c.006 1.182-.803 1.801-1.681 1.801-.923 0-1.52-.648-1.526-1.686v-5.176h-2.444v5.612c.006 2.059 1.211 3.316 2.983 3.316 1.326 0 2.278-.683 2.674-1.716h.092v1.601h2.347v-8.813h-2.445v5.061zm8.573-5.061h-1.659v-2.111h-2.444v2.111h-1.205v1.836h1.205v4.59c-.011 1.727 1.165 2.582 2.938 2.508a4.756 4.756 0 001.325-.23l-.384-1.819c-.121.023-.379.081-.608.081-.488 0-.827-.184-.827-.861v-4.269h1.659v-1.836zm3.59 8.979c1.303 0 2.146-.568 2.576-1.388h.069v1.222h2.318v-5.944c0-2.1-1.778-2.983-3.741-2.983-2.111 0-3.5 1.009-3.838 2.616l2.261.183c.166-.585.688-1.015 1.566-1.015.832 0 1.308.419 1.308 1.142v.034c0 .568-.602.643-2.134.792-1.745.161-3.311.746-3.311 2.714 0 1.744 1.245 2.627 2.926 2.627zm.7-1.686c-.751 0-1.291-.35-1.291-1.022 0-.688.568-1.027 1.429-1.147.533-.075 1.406-.201 1.698-.396v.935c0 .924-.763 1.63-1.836 1.63zm10.332-7.293h-1.658v-2.111h-2.444v2.111h-1.205v1.836h1.205v4.59c-.011 1.727 1.165 2.582 2.938 2.508a4.764 4.764 0 001.325-.23l-.384-1.819c-.121.023-.379.081-.609.081-.487 0-.826-.184-.826-.861v-4.269h1.658v-1.836zm1.078 8.813h2.444v-8.813h-2.444v8.813zm1.228-9.949c.728 0 1.325-.556 1.325-1.239 0-.677-.597-1.234-1.325-1.234-.723 0-1.32.557-1.32 1.234 0 .683.597 1.239 1.32 1.239zm6.641 10.121c2.674 0 4.338-1.83 4.338-4.544 0-2.731-1.664-4.555-4.338-4.555-2.673 0-4.337 1.824-4.337 4.555 0 2.714 1.664 4.544 4.337 4.544zm.012-1.893c-1.234 0-1.865-1.13-1.865-2.668 0-1.538.631-2.674 1.865-2.674 1.21 0 1.842 1.136 1.842 2.674s-.632 2.668-1.842 2.668zm7.845-3.374c.006-1.136.683-1.801 1.669-1.801.981 0 1.572.642 1.567 1.721v5.175h2.444v-5.611c0-2.054-1.205-3.316-3.041-3.316-1.308 0-2.255.642-2.651 1.669h-.103v-1.555h-2.329v8.813h2.444v-5.095zm-55.064 22.095h2.582l1.515-5.542h.109l1.515 5.542h2.587l2.393-8.813h-2.467l-1.343 5.887h-.074l-1.446-5.887h-2.427l-1.423 5.921h-.08l-1.366-5.921h-2.473l2.398 8.813zm15.285.172c2.181 0 3.649-1.061 3.994-2.696l-2.261-.15c-.247.672-.878 1.022-1.692 1.022-1.222 0-1.997-.809-1.997-2.123v-.006h6.001v-.671c0-2.995-1.813-4.475-4.142-4.475-2.593 0-4.275 1.841-4.275 4.561 0 2.794 1.659 4.538 4.372 4.538zm-1.956-5.468c.052-1.004.815-1.807 1.899-1.807 1.062 0 1.796.757 1.802 1.807h-3.701zm7.128 5.296h2.409v-1.411h.11c.338.734 1.078 1.555 2.501 1.555 2.008 0 3.575-1.59 3.575-4.539 0-3.029-1.636-4.532-3.569-4.532-1.475 0-2.18.877-2.507 1.595h-.075v-4.418h-2.444v11.75zm2.392-4.406c0-1.572.666-2.576 1.853-2.576 1.211 0 1.854 1.05 1.854 2.576 0 1.537-.654 2.605-1.854 2.605-1.176 0-1.853-1.033-1.853-2.605zm9.763-.689c.006-1.136.7-1.801 1.698-1.801.993 0 1.578.636 1.572 1.721v5.175h2.445v-5.611c.005-2.066-1.211-3.316-3.047-3.316-1.337 0-2.232.631-2.634 1.669h-.103v-4.492h-2.375v11.75h2.444v-5.095zm11.105 5.267c2.674 0 4.338-1.83 4.338-4.544 0-2.731-1.664-4.555-4.338-4.555-2.673 0-4.337 1.824-4.337 4.555 0 2.714 1.664 4.544 4.337 4.544zm.012-1.893c-1.234 0-1.865-1.13-1.865-2.668 0-1.538.631-2.674 1.865-2.674 1.21 0 1.842 1.136 1.842 2.674s-.632 2.668-1.842 2.668zm9.382 1.893c2.674 0 4.338-1.83 4.338-4.544 0-2.731-1.664-4.555-4.338-4.555-2.673 0-4.337 1.824-4.337 4.555 0 2.714 1.664 4.544 4.337 4.544zm.012-1.893c-1.234 0-1.865-1.13-1.865-2.668 0-1.538.631-2.674 1.865-2.674 1.21 0 1.842 1.136 1.842 2.674s-.632 2.668-1.842 2.668zm-29.175 18.721h2.444v-2.8l.66-.751 2.404 3.551h2.863l-3.437-4.997 3.271-3.816h-2.806l-2.823 3.345h-.132v-6.282h-2.444v11.75z" fill="#1F4C50"></path></g><g clip-path="url(#clip4_19_1353)"><rect x="635" y="295.377" width="127.419" height="58.613" rx="3.185" fill="#C2D4D6"></rect><path d="M666.226 311.277v11.751h2.41v-7.677h.097l3.041 7.619h1.641l3.041-7.59h.097v7.648h2.41v-11.751h-3.064l-3.236 7.895h-.137l-3.236-7.895h-3.064zm19.875 7.999c.006 1.181-.803 1.801-1.681 1.801-.924 0-1.521-.648-1.526-1.687v-5.175h-2.444v5.611c.005 2.06 1.21 3.317 2.983 3.317 1.325 0 2.278-.683 2.674-1.716h.091v1.601h2.347v-8.813h-2.444v5.061zm8.572-5.061h-1.658v-2.111h-2.444v2.111h-1.205v1.836h1.205v4.59c-.012 1.727 1.165 2.582 2.937 2.507a4.774 4.774 0 001.326-.229l-.385-1.819c-.12.023-.378.08-.608.08-.487 0-.826-.183-.826-.86v-4.269h1.658v-1.836zm3.591 8.979c1.302 0 2.146-.568 2.576-1.388h.069v1.222h2.318v-5.944c0-2.1-1.779-2.984-3.741-2.984-2.112 0-3.5 1.01-3.839 2.617l2.261.183c.166-.585.689-1.015 1.566-1.015.832 0 1.309.418 1.309 1.141v.035c0 .568-.603.642-2.135.792-1.744.16-3.31.745-3.31 2.713 0 1.745 1.245 2.628 2.926 2.628zm.7-1.687c-.752 0-1.291-.35-1.291-1.021 0-.688.568-1.027 1.428-1.147.534-.075 1.406-.201 1.699-.396v.935c0 .924-.763 1.629-1.836 1.629zm10.332-7.292h-1.658v-2.111h-2.444v2.111h-1.205v1.836h1.205v4.59c-.012 1.727 1.164 2.582 2.937 2.507a4.782 4.782 0 001.326-.229l-.385-1.819c-.12.023-.379.08-.608.08-.488 0-.826-.183-.826-.86v-4.269h1.658v-1.836zm1.078 8.813h2.444v-8.813h-2.444v8.813zm1.227-9.949c.729 0 1.326-.557 1.326-1.239 0-.677-.597-1.234-1.326-1.234-.723 0-1.319.557-1.319 1.234 0 .682.596 1.239 1.319 1.239zm6.642 10.121c2.674 0 4.337-1.83 4.337-4.544 0-2.731-1.663-4.556-4.337-4.556-2.674 0-4.338 1.825-4.338 4.556 0 2.714 1.664 4.544 4.338 4.544zm.011-1.893c-1.233 0-1.864-1.131-1.864-2.668 0-1.538.631-2.674 1.864-2.674 1.211 0 1.842 1.136 1.842 2.674 0 1.537-.631 2.668-1.842 2.668zm7.845-3.374c.006-1.136.683-1.802 1.67-1.802.981 0 1.572.643 1.566 1.722v5.175h2.444v-5.611c0-2.054-1.204-3.317-3.04-3.317-1.309 0-2.255.643-2.651 1.67h-.103v-1.555h-2.33v8.813h2.444v-5.095zm-59.508 22.095h2.582l1.515-5.543h.109l1.515 5.543h2.587l2.393-8.813h-2.467l-1.343 5.887h-.075l-1.445-5.887h-2.427l-1.423 5.921h-.081l-1.365-5.921h-2.473l2.398 8.813zm15.285.172c2.181 0 3.649-1.061 3.994-2.697l-2.261-.149c-.247.671-.878 1.021-1.692 1.021-1.223 0-1.997-.809-1.997-2.122v-.006h6.001v-.671c0-2.995-1.813-4.476-4.142-4.476-2.593 0-4.275 1.842-4.275 4.562 0 2.794 1.659 4.538 4.372 4.538zm-1.956-5.468c.052-1.004.815-1.807 1.899-1.807 1.061 0 1.796.757 1.802 1.807h-3.701zm7.128 5.296h2.409v-1.412h.109c.339.735 1.079 1.555 2.502 1.555 2.008 0 3.574-1.589 3.574-4.538 0-3.029-1.635-4.533-3.568-4.533-1.475 0-2.181.878-2.508 1.595h-.074v-4.418h-2.444v11.751zm2.392-4.407c0-1.572.666-2.576 1.853-2.576 1.211 0 1.854 1.05 1.854 2.576 0 1.538-.654 2.605-1.854 2.605-1.176 0-1.853-1.032-1.853-2.605zm9.763-.688c.006-1.136.7-1.802 1.698-1.802.993 0 1.578.637 1.572 1.722v5.175h2.444v-5.611c.006-2.066-1.21-3.317-3.046-3.317-1.337 0-2.232.631-2.634 1.67h-.103v-4.493h-2.375v11.751h2.444v-5.095zm11.105 5.267c2.674 0 4.338-1.83 4.338-4.544 0-2.731-1.664-4.556-4.338-4.556-2.673 0-4.337 1.825-4.337 4.556 0 2.714 1.664 4.544 4.337 4.544zm.012-1.893c-1.234 0-1.865-1.131-1.865-2.668 0-1.538.631-2.674 1.865-2.674 1.21 0 1.841 1.136 1.841 2.674 0 1.537-.631 2.668-1.841 2.668zm9.382 1.893c2.674 0 4.338-1.83 4.338-4.544 0-2.731-1.664-4.556-4.338-4.556-2.673 0-4.337 1.825-4.337 4.556 0 2.714 1.664 4.544 4.337 4.544zm.012-1.893c-1.234 0-1.865-1.131-1.865-2.668 0-1.538.631-2.674 1.865-2.674 1.21 0 1.842 1.136 1.842 2.674 0 1.537-.632 2.668-1.842 2.668zm5.401 1.721h2.444v-2.8l.66-.752 2.404 3.552h2.863l-3.437-4.998 3.27-3.815h-2.805l-2.823 3.345h-.132v-6.283h-2.444v11.751z" fill="#1F4C50"></path></g><g clip-path="url(#clip5_19_1353)"><rect x="906.163" y="247.595" width="127.419" height="58.613" rx="3.185" fill="#53777A"></rect><path d="M935.806 264.405h-2.76l4.056 11.751h3.202l4.051-11.751h-2.754l-2.846 8.928h-.109l-2.84-8.928zm10.937 11.917c1.303 0 2.146-.568 2.576-1.388h.069v1.222h2.318v-5.944c0-2.1-1.778-2.984-3.741-2.984-2.111 0-3.5 1.01-3.838 2.617l2.26.183c.167-.585.689-1.015 1.567-1.015.832 0 1.308.418 1.308 1.141v.035c0 .568-.602.642-2.134.792-1.745.16-3.311.745-3.311 2.713 0 1.745 1.245 2.628 2.926 2.628zm.7-1.687c-.751 0-1.291-.35-1.291-1.021 0-.688.568-1.027 1.429-1.147.533-.075 1.406-.201 1.698-.396v.935c0 .924-.763 1.629-1.836 1.629zm8.089-10.23h-2.444v11.751h2.444v-11.751zm1.443 11.751h2.445v-8.813h-2.445v8.813zm1.228-9.949c.729 0 1.326-.557 1.326-1.239 0-.677-.597-1.234-1.326-1.234-.723 0-1.319.557-1.319 1.234 0 .682.596 1.239 1.319 1.239zm5.907 10.092c1.423 0 2.163-.82 2.502-1.555h.103v1.412h2.41v-11.751h-2.439v4.418h-.074c-.327-.717-1.033-1.595-2.507-1.595-1.934 0-3.569 1.503-3.569 4.533 0 2.949 1.566 4.538 3.574 4.538zm.775-1.945c-1.199 0-1.853-1.067-1.853-2.605 0-1.526.642-2.576 1.853-2.576 1.188 0 1.853 1.004 1.853 2.576s-.677 2.605-1.853 2.605zm8.248 1.968c1.302 0 2.146-.568 2.576-1.388h.069v1.222h2.318v-5.944c0-2.1-1.779-2.984-3.741-2.984-2.111 0-3.5 1.01-3.838 2.617l2.26.183c.167-.585.689-1.015 1.567-1.015.831 0 1.308.418 1.308 1.141v.035c0 .568-.603.642-2.135.792-1.744.16-3.31.745-3.31 2.713 0 1.745 1.245 2.628 2.926 2.628zm.7-1.687c-.752 0-1.291-.35-1.291-1.021 0-.688.568-1.027 1.429-1.147.533-.075 1.405-.201 1.698-.396v.935c0 .924-.763 1.629-1.836 1.629zm10.332-7.292h-1.658v-2.111h-2.444v2.111h-1.205v1.836h1.205v4.59c-.012 1.727 1.164 2.582 2.937 2.507a4.782 4.782 0 001.326-.229l-.385-1.819c-.12.023-.378.08-.608.08-.488 0-.826-.183-.826-.86v-4.269h1.658v-1.836zm1.078 8.813h2.444v-8.813h-2.444v8.813zm1.227-9.949c.729 0 1.326-.557 1.326-1.239 0-.677-.597-1.234-1.326-1.234-.722 0-1.319.557-1.319 1.234 0 .682.597 1.239 1.319 1.239zm6.642 10.121c2.674 0 4.338-1.83 4.338-4.544 0-2.731-1.664-4.556-4.338-4.556-2.674 0-4.338 1.825-4.338 4.556 0 2.714 1.664 4.544 4.338 4.544zm.011-1.893c-1.233 0-1.864-1.131-1.864-2.668 0-1.538.631-2.674 1.864-2.674 1.211 0 1.842 1.136 1.842 2.674 0 1.537-.631 2.668-1.842 2.668zm7.847-3.374c0-1.136.68-1.802 1.67-1.802.98 0 1.57.643 1.56 1.722v5.175h2.45v-5.612c0-2.054-1.21-3.316-3.04-3.316-1.31 0-2.26.643-2.65 1.67h-.11v-1.555h-2.326v8.813h2.446v-5.095zm-63.216 22.095h2.582l1.515-5.543h.109l1.515 5.543h2.587l2.393-8.813h-2.467l-1.343 5.887h-.074l-1.446-5.887h-2.427l-1.423 5.921h-.081l-1.365-5.921h-2.473l2.398 8.813zm15.285.172c2.181 0 3.649-1.062 3.994-2.697l-2.261-.149c-.247.671-.878 1.021-1.692 1.021-1.222 0-1.997-.809-1.997-2.123v-.005h6.001v-.672c0-2.994-1.813-4.475-4.142-4.475-2.593 0-4.275 1.842-4.275 4.562 0 2.794 1.659 4.538 4.372 4.538zm-1.956-5.468c.052-1.004.815-1.807 1.899-1.807 1.061 0 1.796.757 1.802 1.807h-3.701zm7.128 5.296h2.409v-1.412h.109c.339.735 1.079 1.555 2.502 1.555 2.008 0 3.574-1.589 3.574-4.538 0-3.03-1.635-4.533-3.568-4.533-1.475 0-2.18.878-2.508 1.595h-.074v-4.418h-2.444v11.751zm2.392-4.407c0-1.572.666-2.576 1.853-2.576 1.211 0 1.854 1.05 1.854 2.576 0 1.538-.654 2.605-1.854 2.605-1.176 0-1.853-1.033-1.853-2.605zm9.763-.688c.006-1.136.7-1.802 1.698-1.802.993 0 1.578.637 1.572 1.722v5.175h2.445v-5.612c.005-2.065-1.211-3.316-3.047-3.316-1.337 0-2.232.631-2.634 1.67h-.103v-4.493h-2.375v11.751h2.444v-5.095zm11.105 5.267c2.674 0 4.338-1.83 4.338-4.544 0-2.731-1.664-4.556-4.338-4.556-2.673 0-4.337 1.825-4.337 4.556 0 2.714 1.664 4.544 4.337 4.544zm.012-1.893c-1.234 0-1.865-1.131-1.865-2.668 0-1.538.631-2.674 1.865-2.674 1.21 0 1.842 1.136 1.842 2.674 0 1.537-.632 2.668-1.842 2.668zm9.382 1.893c2.674 0 4.338-1.83 4.338-4.544 0-2.731-1.664-4.556-4.338-4.556-2.673 0-4.337 1.825-4.337 4.556 0 2.714 1.664 4.544 4.337 4.544zm.012-1.893c-1.234 0-1.865-1.131-1.865-2.668 0-1.538.631-2.674 1.865-2.674 1.21 0 1.842 1.136 1.842 2.674 0 1.537-.632 2.668-1.842 2.668zm5.401 1.721h2.444v-2.8l.66-.752 2.408 3.552h2.86l-3.44-4.998 3.27-3.815h-2.8l-2.826 3.345h-.132v-6.283h-2.444v11.751z" fill="#1F4C50"></path></g><g clip-path="url(#clip6_19_1353)"><rect x="893.421" y="271.804" width="127.419" height="58.613" rx="3.185" fill="#86A9AC"></rect><path d="M923.063 288.069h-2.76l4.057 11.75h3.201l4.051-11.75h-2.754l-2.846 8.927h-.109l-2.84-8.927zM934 299.986c1.303 0 2.146-.568 2.577-1.389h.068v1.222h2.318v-5.944c0-2.1-1.778-2.983-3.74-2.983-2.112 0-3.5 1.01-3.839 2.616l2.261.184c.166-.586.688-1.016 1.566-1.016.832 0 1.308.419 1.308 1.142v.034c0 .568-.602.643-2.134.792-1.744.161-3.311.746-3.311 2.714 0 1.744 1.245 2.628 2.926 2.628zm.7-1.687c-.751 0-1.29-.35-1.29-1.021 0-.689.568-1.027 1.428-1.148.534-.074 1.406-.201 1.698-.396v.935c0 .924-.763 1.63-1.836 1.63zm8.089-10.23h-2.444v11.75h2.444v-11.75zm1.444 11.75h2.444v-8.812h-2.444v8.812zm1.227-9.948c.729 0 1.326-.557 1.326-1.24 0-.677-.597-1.233-1.326-1.233-.722 0-1.319.556-1.319 1.233 0 .683.597 1.24 1.319 1.24zm5.908 10.092c1.422 0 2.163-.821 2.501-1.555h.103v1.411h2.41v-11.75h-2.438v4.418h-.075c-.327-.717-1.033-1.595-2.507-1.595-1.934 0-3.569 1.503-3.569 4.532 0 2.949 1.566 4.539 3.575 4.539zm.774-1.945c-1.199 0-1.853-1.067-1.853-2.605 0-1.526.643-2.576 1.853-2.576 1.188 0 1.853 1.004 1.853 2.576s-.677 2.605-1.853 2.605zm8.248 1.968c1.303 0 2.146-.568 2.576-1.389h.069v1.222h2.318v-5.944c0-2.1-1.779-2.983-3.741-2.983-2.111 0-3.5 1.01-3.838 2.616l2.26.184c.167-.586.689-1.016 1.567-1.016.832 0 1.308.419 1.308 1.142v.034c0 .568-.602.643-2.134.792-1.745.161-3.311.746-3.311 2.714 0 1.744 1.245 2.628 2.926 2.628zm.7-1.687c-.751 0-1.291-.35-1.291-1.021 0-.689.568-1.027 1.429-1.148.533-.074 1.406-.201 1.698-.396v.935c0 .924-.763 1.63-1.836 1.63zm10.332-7.292h-1.658v-2.112h-2.444v2.112h-1.205v1.836h1.205v4.59c-.011 1.727 1.165 2.581 2.938 2.507a4.726 4.726 0 001.325-.23l-.384-1.818c-.121.022-.379.08-.609.08-.487 0-.826-.184-.826-.861v-4.268h1.658v-1.836zm1.078 8.812h2.444v-8.812H972.5v8.812zm1.228-9.948c.728 0 1.325-.557 1.325-1.24 0-.677-.597-1.233-1.325-1.233-.723 0-1.32.556-1.32 1.233 0 .683.597 1.24 1.32 1.24zm6.641 10.12c2.674 0 4.338-1.83 4.338-4.544 0-2.731-1.664-4.555-4.338-4.555-2.673 0-4.337 1.824-4.337 4.555 0 2.714 1.664 4.544 4.337 4.544zm.012-1.893c-1.234 0-1.865-1.13-1.865-2.668 0-1.537.631-2.674 1.865-2.674 1.21 0 1.842 1.137 1.842 2.674 0 1.538-.632 2.668-1.842 2.668zm7.845-3.374c.005-1.136.683-1.801 1.669-1.801.981 0 1.572.642 1.567 1.721v5.175h2.444v-5.611c0-2.054-1.205-3.316-3.041-3.316-1.308 0-2.255.642-2.651 1.669h-.103v-1.554h-2.329v8.812h2.444v-5.095zm-63.214 22.095h2.582l1.514-5.542h.109l1.515 5.542h2.588l2.392-8.812h-2.467l-1.343 5.886h-.074l-1.446-5.886h-2.427l-1.423 5.921h-.08l-1.366-5.921h-2.473l2.399 8.812zm15.285.172c2.18 0 3.649-1.061 3.993-2.696l-2.261-.149c-.246.671-.877 1.021-1.692 1.021-1.222 0-1.997-.809-1.997-2.123v-.006h6.002v-.671c0-2.995-1.813-4.475-4.143-4.475-2.593 0-4.274 1.842-4.274 4.561 0 2.794 1.658 4.538 4.372 4.538zm-1.957-5.467c.052-1.004.815-1.808 1.899-1.808 1.062 0 1.796.758 1.802 1.808h-3.701zm7.128 5.295h2.41v-1.411h.109c.338.734 1.078 1.555 2.501 1.555 2.008 0 3.575-1.59 3.575-4.539 0-3.029-1.635-4.532-3.569-4.532-1.474 0-2.18.878-2.507 1.595h-.075v-4.418h-2.444v11.75zm2.393-4.406c0-1.572.665-2.576 1.853-2.576 1.21 0 1.853 1.05 1.853 2.576 0 1.538-.654 2.605-1.853 2.605-1.176 0-1.853-1.033-1.853-2.605zm9.762-.689c.006-1.136.7-1.801 1.699-1.801.992 0 1.577.637 1.572 1.721v5.175h2.444v-5.611c.006-2.065-1.211-3.316-3.047-3.316-1.337 0-2.232.631-2.633 1.669h-.104v-4.492h-2.375v11.75h2.444v-5.095zm11.106 5.267c2.673 0 4.337-1.83 4.337-4.544 0-2.731-1.664-4.555-4.337-4.555-2.674 0-4.338 1.824-4.338 4.555 0 2.714 1.664 4.544 4.338 4.544zm.011-1.893c-1.234 0-1.865-1.13-1.865-2.668 0-1.537.631-2.674 1.865-2.674 1.211 0 1.842 1.137 1.842 2.674 0 1.538-.631 2.668-1.842 2.668zm9.383 1.893c2.673 0 4.337-1.83 4.337-4.544 0-2.731-1.664-4.555-4.337-4.555-2.674 0-4.338 1.824-4.338 4.555 0 2.714 1.664 4.544 4.338 4.544zm.011-1.893c-1.233 0-1.865-1.13-1.865-2.668 0-1.537.632-2.674 1.865-2.674 1.211 0 1.842 1.137 1.842 2.674 0 1.538-.631 2.668-1.842 2.668zm5.401 1.721h2.444v-2.8l.66-.751 2.404 3.551h2.863l-3.437-4.997 3.271-3.815h-2.806l-2.823 3.345h-.132v-6.283h-2.444v11.75z" fill="#1F4C50"></path></g><g clip-path="url(#clip7_19_1353)"><rect x="880.679" y="295.377" width="127.419" height="58.613" rx="3.185" fill="#C2D4D6"></rect><path d="M910.321 311.733h-2.759l4.056 11.75h3.201l4.051-11.75h-2.754l-2.846 8.927h-.109l-2.84-8.927zm10.938 11.916c1.302 0 2.146-.568 2.576-1.388h.069v1.222h2.318v-5.944c0-2.1-1.779-2.984-3.741-2.984-2.112 0-3.5 1.01-3.839 2.617l2.261.183c.166-.585.689-1.015 1.566-1.015.832 0 1.309.419 1.309 1.141v.035c0 .568-.603.643-2.135.792-1.744.16-3.31.746-3.31 2.714 0 1.744 1.245 2.627 2.926 2.627zm.7-1.687c-.752 0-1.291-.35-1.291-1.021 0-.688.568-1.027 1.428-1.147.534-.075 1.406-.201 1.699-.396v.935c0 .924-.763 1.629-1.836 1.629zm8.089-10.229h-2.445v11.75h2.445v-11.75zm1.443 11.75h2.444v-8.813h-2.444v8.813zm1.228-9.949c.728 0 1.325-.556 1.325-1.239 0-.677-.597-1.234-1.325-1.234-.723 0-1.32.557-1.32 1.234 0 .683.597 1.239 1.32 1.239zm5.907 10.092c1.423 0 2.163-.82 2.501-1.555h.104v1.412h2.409v-11.75h-2.438v4.417h-.075c-.327-.717-1.032-1.595-2.507-1.595-1.933 0-3.569 1.504-3.569 4.533 0 2.949 1.567 4.538 3.575 4.538zm.774-1.945c-1.199 0-1.853-1.067-1.853-2.604 0-1.527.643-2.577 1.853-2.577 1.188 0 1.854 1.004 1.854 2.577 0 1.572-.677 2.604-1.854 2.604zm8.248 1.968c1.303 0 2.146-.568 2.577-1.388h.068v1.222h2.318v-5.944c0-2.1-1.778-2.984-3.74-2.984-2.112 0-3.5 1.01-3.839 2.617l2.261.183c.166-.585.688-1.015 1.566-1.015.832 0 1.308.419 1.308 1.141v.035c0 .568-.602.643-2.134.792-1.744.16-3.311.746-3.311 2.714 0 1.744 1.245 2.627 2.926 2.627zm.7-1.687c-.751 0-1.29-.35-1.29-1.021 0-.688.568-1.027 1.428-1.147.534-.075 1.406-.201 1.698-.396v.935c0 .924-.763 1.629-1.836 1.629zm10.333-7.292h-1.659v-2.111h-2.444v2.111h-1.205v1.836h1.205v4.59c-.011 1.727 1.165 2.582 2.938 2.507a4.765 4.765 0 001.325-.229l-.384-1.819c-.121.023-.379.08-.608.08-.488 0-.827-.183-.827-.86v-4.269h1.659v-1.836zm1.077 8.813h2.444v-8.813h-2.444v8.813zm1.228-9.949c.729 0 1.325-.556 1.325-1.239 0-.677-.596-1.234-1.325-1.234-.723 0-1.32.557-1.32 1.234 0 .683.597 1.239 1.32 1.239zm6.642 10.121c2.673 0 4.337-1.83 4.337-4.544 0-2.731-1.664-4.556-4.337-4.556-2.674 0-4.338 1.825-4.338 4.556 0 2.714 1.664 4.544 4.338 4.544zm.011-1.893c-1.233 0-1.865-1.131-1.865-2.668 0-1.538.632-2.674 1.865-2.674 1.211 0 1.842 1.136 1.842 2.674 0 1.537-.631 2.668-1.842 2.668zm7.845-3.374c.006-1.136.683-1.802 1.67-1.802.981 0 1.572.643 1.566 1.722v5.175h2.444v-5.611c0-2.054-1.205-3.317-3.041-3.317-1.308 0-2.255.643-2.65 1.67h-.104v-1.555h-2.329v8.813h2.444v-5.095zm-63.214 22.095h2.582l1.515-5.543h.109l1.514 5.543h2.588l2.392-8.813h-2.467l-1.342 5.887h-.075l-1.446-5.887h-2.427l-1.423 5.921h-.08l-1.365-5.921h-2.473l2.398 8.813zm15.285.172c2.18 0 3.649-1.061 3.993-2.697l-2.26-.149c-.247.672-.878 1.022-1.693 1.022-1.222 0-1.996-.809-1.996-2.123v-.006h6.001v-.671c0-2.995-1.813-4.476-4.143-4.476-2.593 0-4.274 1.842-4.274 4.562 0 2.794 1.658 4.538 4.372 4.538zm-1.956-5.468c.051-1.004.814-1.807 1.899-1.807 1.061 0 1.795.757 1.801 1.807h-3.7zm7.127 5.296h2.41v-1.412h.109c.339.735 1.079 1.555 2.502 1.555 2.008 0 3.574-1.589 3.574-4.538 0-3.029-1.635-4.533-3.569-4.533-1.474 0-2.18.878-2.507 1.595h-.075v-4.417h-2.444v11.75zm2.393-4.406c0-1.573.665-2.577 1.853-2.577 1.211 0 1.853 1.05 1.853 2.577 0 1.537-.654 2.604-1.853 2.604-1.176 0-1.853-1.032-1.853-2.604zm9.763-.689c.005-1.136.7-1.802 1.698-1.802.992 0 1.578.637 1.572 1.722v5.175h2.444v-5.611c.006-2.066-1.21-3.317-3.046-3.317-1.337 0-2.232.632-2.634 1.67h-.103v-4.492h-2.376v11.75h2.445v-5.095zm11.105 5.267c2.674 0 4.337-1.83 4.337-4.544 0-2.731-1.663-4.556-4.337-4.556-2.674 0-4.338 1.825-4.338 4.556 0 2.714 1.664 4.544 4.338 4.544zm.011-1.893c-1.233 0-1.864-1.131-1.864-2.668 0-1.538.631-2.674 1.864-2.674 1.211 0 1.842 1.136 1.842 2.674 0 1.537-.631 2.668-1.842 2.668zm9.383 1.893c2.674 0 4.338-1.83 4.338-4.544 0-2.731-1.664-4.556-4.338-4.556-2.674 0-4.338 1.825-4.338 4.556 0 2.714 1.664 4.544 4.338 4.544zm.011-1.893c-1.233 0-1.864-1.131-1.864-2.668 0-1.538.631-2.674 1.864-2.674 1.211 0 1.842 1.136 1.842 2.674 0 1.537-.631 2.668-1.842 2.668zm5.401 1.721h2.444v-2.8l.66-.752 2.404 3.552h2.863l-3.437-4.997 3.271-3.816h-2.806l-2.823 3.345h-.132v-6.282h-2.444v11.75z" fill="#1F4C50"></path></g><rect x="432.869" y="430.575" width="149.972" height="245.41" rx="3.749" fill="#53777A"></rect><path d="M516.665 623.2l-3.9-1.269v-6.172l3.9-1.269v-3.875l-17.102 5.896v4.66l17.102 5.904V623.2zm-6.722-2.188l-6.472-2.104v-.134l6.472-2.104v4.342zm1.261-19.865c1.72-.008 2.622 1.169 2.622 2.447 0 1.344-.944 2.213-2.455 2.221h-7.533v3.558h8.167c2.998-.009 4.827-1.762 4.827-4.343 0-1.929-.994-3.315-2.497-3.891v-.134h2.33v-3.415h-12.827v3.557h7.366zm-7.366-12.476v2.413h-3.073v3.557h3.073v1.754h2.673v-1.754h6.68c2.514.017 3.758-1.695 3.649-4.275a6.897 6.897 0 00-.334-1.929l-2.647.559c.034.176.117.551.117.885 0 .71-.267 1.203-1.253 1.203h-6.212v-2.413h-2.673zm5.412-5.402c-1.654-.008-2.623-1.019-2.623-2.472 0-1.444.927-2.296 2.506-2.288h7.532v-3.557h-8.167c-3.006-.009-4.827 1.762-4.827 4.434 0 1.946.919 3.248 2.43 3.833v.15h-6.538v3.458h17.102v-3.558h-7.415zm7.666-16.163c0-3.892-2.664-6.313-6.614-6.313-3.975 0-6.631 2.421-6.631 6.313 0 3.891 2.656 6.313 6.631 6.313 3.95 0 6.614-2.422 6.614-6.313zm-2.756-.017c0 1.795-1.645 2.714-3.883 2.714s-3.892-.919-3.892-2.714c0-1.762 1.654-2.681 3.892-2.681s3.883.919 3.883 2.681zm2.505-7.861v-3.557h-7.257c-1.578 0-2.664-1.153-2.664-2.722 0-.493.084-1.17.192-1.504h-3.156c-.075.318-.125.76-.125 1.119 0 1.437.835 2.614 2.421 3.082v.133h-2.238v3.449h12.827zm0-8.873v-3.557h-12.827v3.557h12.827zm-14.48-1.787c0-1.061-.81-1.929-1.804-1.929-.985 0-1.795.868-1.795 1.929 0 1.052.81 1.921 1.795 1.921.994 0 1.804-.869 1.804-1.921zm5.311-14.543c-2.363.317-3.825 2.221-3.825 5.461 0 3.282 1.52 5.445 3.992 5.436 1.921.009 3.165-1.202 3.666-3.707l.442-2.222c.226-1.119.635-1.628 1.278-1.645.76.017 1.303.844 1.303 2.088 0 1.269-.543 2.113-1.587 2.33l.184 3.499c2.455-.334 3.967-2.422 3.967-5.821 0-3.323-1.696-5.703-4.226-5.712-1.854.009-2.964 1.22-3.474 3.708l-.467 2.322c-.259 1.194-.669 1.636-1.287 1.628-.768.008-1.269-.86-1.269-1.962 0-1.236.677-1.971 1.503-2.147l-.2-3.256zm9.411-5.441c0-1.896-.827-3.124-2.021-3.75v-.1h1.779v-3.374h-8.651c-3.057 0-4.343 2.589-4.343 5.445 0 3.073 1.47 5.094 3.808 5.586l.267-3.29c-.851-.242-1.478-1.002-1.478-2.279 0-1.211.61-1.904 1.662-1.904h.05c.827 0 .936.876 1.153 3.106.233 2.539 1.085 4.818 3.95 4.818 2.538 0 3.824-1.812 3.824-4.258zm-2.455-1.019c0 1.094-.509 1.879-1.486 1.879-1.002 0-1.495-.827-1.671-2.08-.108-.776-.292-2.046-.576-2.471h1.361c1.345 0 2.372 1.11 2.372 2.672zm-10.614-15.038v2.413h-3.073v3.557h3.073v1.754h2.673v-1.754h6.68c2.514.017 3.758-1.695 3.649-4.275a6.897 6.897 0 00-.334-1.929l-2.647.559c.034.176.117.551.117.885 0 .71-.267 1.203-1.253 1.203h-6.212v-2.413h-2.673zm12.827-1.569v-3.557h-12.827v3.557h12.827zm-14.48-1.787c0-1.06-.81-1.929-1.804-1.929-.985 0-1.795.869-1.795 1.929 0 1.052.81 1.921 1.795 1.921.994 0 1.804-.869 1.804-1.921zm14.731-9.666c0-3.892-2.664-6.314-6.614-6.314-3.975 0-6.631 2.422-6.631 6.314 0 3.891 2.656 6.313 6.631 6.313 3.95 0 6.614-2.422 6.614-6.313zm-2.756-.017c0 1.795-1.645 2.714-3.883 2.714s-3.892-.919-3.892-2.714c0-1.762 1.654-2.681 3.892-2.681s3.883.919 3.883 2.681zm-4.91-11.418c-1.654-.009-2.623-.994-2.623-2.43 0-1.428.936-2.288 2.506-2.28h7.532v-3.558h-8.167c-2.99 0-4.827 1.754-4.827 4.426 0 1.904.936 3.282 2.43 3.858v.151h-2.263v3.39h12.827v-3.557h-7.415z" fill="#fff"></path><rect x="239" y="275.732" width="204.322" height="84.747" rx="3.749" fill="#B44F5B"></rect><path d="M262.46 309.561v17.102h3.507V315.49h.142l4.426 11.09h2.388l4.426-11.048h.142v11.131h3.507v-17.102h-4.459l-4.71 11.49h-.2l-4.71-11.49h-4.459zm26.547 17.353c3.174 0 5.311-1.545 5.812-3.925l-3.29-.217c-.359.977-1.277 1.486-2.463 1.486-1.779 0-2.906-1.177-2.906-3.09v-.008h8.735v-.977c0-4.359-2.639-6.514-6.03-6.514-3.774 0-6.221 2.681-6.221 6.639 0 4.067 2.413 6.606 6.363 6.606zm-2.847-7.959c.075-1.461 1.186-2.63 2.764-2.63 1.545 0 2.614 1.102 2.622 2.63h-5.386zm17.13-5.119h-2.414v-3.073h-3.557v3.073h-1.754v2.673h1.754v6.68c-.017 2.514 1.695 3.758 4.276 3.649a6.913 6.913 0 001.929-.334l-.56-2.647c-.175.034-.551.117-.885.117-.71 0-1.203-.267-1.203-1.252v-6.213h2.414v-2.673zm1.568 12.827h3.558v-7.257c0-1.578 1.152-2.664 2.722-2.664.493 0 1.169.084 1.503.192v-3.156a5.348 5.348 0 00-1.119-.125c-1.436 0-2.614.835-3.081 2.421h-.134v-2.238h-3.449v12.827zm8.873 0h3.558v-12.827h-3.558v12.827zm1.787-14.48c1.061 0 1.929-.81 1.929-1.804 0-.985-.868-1.795-1.929-1.795-1.052 0-1.92.81-1.92 1.795 0 .994.868 1.804 1.92 1.804zm9.667 14.731c3.415 0 5.562-2.005 5.729-4.952h-3.357c-.209 1.369-1.111 2.137-2.33 2.137-1.662 0-2.739-1.394-2.739-3.849 0-2.422 1.085-3.808 2.739-3.808 1.302 0 2.138.86 2.33 2.138h3.357c-.151-2.965-2.397-4.911-5.746-4.911-3.891 0-6.296 2.698-6.296 6.631 0 3.9 2.363 6.614 6.313 6.614zm17.93-9.42c-.318-2.363-2.222-3.825-5.462-3.825-3.282 0-5.444 1.52-5.436 3.992-.008 1.921 1.202 3.165 3.708 3.666l2.221.443c1.119.225 1.628.634 1.645 1.277-.017.76-.843 1.303-2.088 1.303-1.269 0-2.112-.543-2.33-1.587l-3.498.184c.334 2.455 2.421 3.967 5.82 3.967 3.324 0 5.704-1.696 5.712-4.226-.008-1.854-1.219-2.964-3.708-3.474l-2.321-.467c-1.195-.259-1.637-.668-1.629-1.286-.008-.769.86-1.27 1.963-1.27 1.236 0 1.97.677 2.146 1.503l3.257-.2zm15.821-3.015h3.466c-.05-3.048-2.556-5.152-6.363-5.152-3.75 0-6.497 2.071-6.481 5.177-.008 2.522 1.771 3.967 4.66 4.66l1.862.468c1.862.451 2.898.985 2.906 2.138-.008 1.252-1.194 2.104-3.031 2.104-1.879 0-3.232-.869-3.349-2.58h-3.499c.092 3.699 2.739 5.611 6.89 5.611 4.175 0 6.63-1.996 6.639-5.127-.009-2.848-2.155-4.359-5.128-5.027l-1.536-.368c-1.487-.342-2.731-.893-2.706-2.121 0-1.102.977-1.912 2.747-1.912 1.729 0 2.79.785 2.923 2.129zm11.162 12.435c3.173 0 5.311-1.545 5.812-3.925l-3.291-.217c-.359.977-1.277 1.486-2.463 1.486-1.779 0-2.906-1.177-2.906-3.09v-.008h8.735v-.977c0-4.359-2.639-6.514-6.029-6.514-3.775 0-6.222 2.681-6.222 6.639 0 4.067 2.414 6.606 6.364 6.606zm-2.848-7.959c.075-1.461 1.186-2.63 2.764-2.63 1.545 0 2.614 1.102 2.622 2.63h-5.386zm10.307 7.708h3.558v-7.257c0-1.578 1.152-2.664 2.722-2.664.493 0 1.169.084 1.503.192v-3.156a5.348 5.348 0 00-1.119-.125c-1.436 0-2.613.835-3.081 2.421h-.134v-2.238h-3.449v12.827zm21.222-12.827h-3.766l-2.655 9.178h-.134l-2.664-9.178h-3.758l4.485 12.827h4.008l4.484-12.827zm6.481 13.078c3.173 0 5.311-1.545 5.812-3.925l-3.29-.217c-.359.977-1.278 1.486-2.463 1.486-1.779 0-2.907-1.177-2.907-3.09v-.008h8.735v-.977c0-4.359-2.638-6.514-6.029-6.514-3.774 0-6.221 2.681-6.221 6.639 0 4.067 2.413 6.606 6.363 6.606zm-2.848-7.959c.076-1.461 1.186-2.63 2.765-2.63 1.544 0 2.613 1.102 2.622 2.63h-5.387zm10.308 7.708h3.557v-7.257c0-1.578 1.153-2.664 2.723-2.664.492 0 1.169.084 1.503.192v-3.156a5.356 5.356 0 00-1.119-.125c-1.437 0-2.614.835-3.082 2.421h-.133v-2.238h-3.449v12.827z" fill="#fff"></path><rect x="1067.9" y="431.187" width="68.987" height="245.41" rx="3.749" fill="#53777A"></rect><path d="M1109.83 656.63v-3.608h-6.05v-2.634l6.05-3.234v-3.984l-6.64 3.626c-.83-1.942-2.52-3.017-4.85-3.017-3.4 0-5.58 2.242-5.58 6.117v6.734h17.07zm-8.95-3.608h-5.17v-2.434c0-2.084.93-3.092 2.63-3.092 1.69 0 2.54 1.008 2.54 3.075v2.451zm9.2-16.607c0-3.167-1.54-5.301-3.92-5.801l-.22 3.284c.98.358 1.49 1.275 1.49 2.458 0 1.775-1.18 2.901-3.09 2.901v-8.718h-.98c-4.35 0-6.5 2.634-6.5 6.017 0 3.767 2.68 6.209 6.63 6.209 4.05 0 6.59-2.408 6.59-6.35zm-7.94 2.842c-1.46-.075-2.63-1.184-2.63-2.759 0-1.542 1.1-2.609 2.63-2.617v5.376zm-1.46-20.939c-2.36.317-3.82 2.217-3.82 5.451 0 3.275 1.52 5.434 3.98 5.425 1.92.009 3.16-1.2 3.66-3.7l.44-2.217c.23-1.117.64-1.625 1.28-1.642.76.017 1.3.842 1.3 2.084 0 1.266-.54 2.108-1.58 2.325l.18 3.492c2.45-.333 3.96-2.417 3.96-5.809 0-3.317-1.69-5.692-4.22-5.701-1.85.009-2.96 1.217-3.47 3.701l-.46 2.317c-.26 1.191-.67 1.633-1.29 1.625-.76.008-1.26-.859-1.26-1.959 0-1.233.67-1.967 1.5-2.142l-.2-3.25zm9.4-7.564c0-3.884-2.66-6.301-6.6-6.301-3.97 0-6.62 2.417-6.62 6.301 0 3.884 2.65 6.301 6.62 6.301 3.94 0 6.6-2.417 6.6-6.301zm-2.75-.017c0 1.792-1.64 2.709-3.88 2.709-2.23 0-3.88-.917-3.88-2.709 0-1.758 1.65-2.675 3.88-2.675 2.24 0 3.88.917 3.88 2.675zm-2.95-16.055c1.71-.008 2.61 1.167 2.61 2.442 0 1.342-.94 2.209-2.45 2.217h-7.51v3.551h8.15c2.99-.008 4.82-1.759 4.82-4.334 0-1.925-1-3.309-2.5-3.884v-.133h2.33v-3.409h-12.8v3.55h7.35zm5.45-5.643v-3.55h-7.24c-1.58 0-2.66-1.15-2.66-2.717 0-.492.08-1.167.19-1.5h-3.15c-.08.317-.13.758-.13 1.117 0 1.433.84 2.608 2.42 3.075v.133h-2.23v3.442h12.8zm.25-14.044c0-3.408-2-5.55-4.94-5.717v3.35c1.36.209 2.13 1.109 2.13 2.326 0 1.658-1.39 2.733-3.84 2.733-2.42 0-3.8-1.083-3.8-2.733 0-1.3.86-2.134 2.13-2.326v-3.35c-2.96.15-4.9 2.392-4.9 5.734 0 3.884 2.69 6.284 6.62 6.284 3.89 0 6.6-2.358 6.6-6.301zm0-13.077c0-3.167-1.54-5.301-3.92-5.801l-.22 3.284c.98.359 1.49 1.275 1.49 2.459 0 1.775-1.18 2.9-3.09 2.9v-8.718h-.98c-4.35 0-6.5 2.634-6.5 6.018 0 3.767 2.68 6.209 6.63 6.209 4.05 0 6.59-2.409 6.59-6.351zm-7.94 2.842c-1.46-.075-2.63-1.183-2.63-2.758 0-1.542 1.1-2.609 2.63-2.618v5.376zm.29-18.522c-1.65-.008-2.62-1.017-2.62-2.467 0-1.442.93-2.292 2.5-2.284h7.52v-3.55h-8.15c-3-.009-4.82 1.758-4.82 4.425 0 1.942.92 3.242 2.43 3.826v.15h-6.53v3.45h17.07v-3.55h-7.4zm7.64-13.998c0-1.892-.82-3.117-2.02-3.742v-.1h1.78v-3.368h-8.64c-3.05 0-4.33 2.584-4.33 5.434 0 3.068 1.47 5.084 3.8 5.576l.27-3.284c-.85-.241-1.48-1-1.48-2.275 0-1.208.61-1.9 1.66-1.9h.05c.83 0 .93.875 1.15 3.1.23 2.534 1.08 4.809 3.94 4.809 2.54 0 3.82-1.808 3.82-4.25zm-2.45-1.017c0 1.092-.51 1.875-1.48 1.875-1 0-1.5-.825-1.67-2.075-.11-.775-.29-2.042-.58-2.467h1.36c1.34 0 2.37 1.108 2.37 2.667zm-5.19-11.75c-1.65-.008-2.62-.992-2.62-2.425 0-1.426.93-2.284 2.5-2.276h7.52v-3.55h-8.15c-2.99 0-4.82 1.75-4.82 4.417 0 1.9.93 3.275 2.43 3.851v.15h-2.26v3.383h12.8v-3.55h-7.4zm7.61-15.019c0-2.067-1.2-3.142-2.26-3.634v-.15h2.05v-3.501h-17.07v3.543h6.42v.108c-1.04.475-2.32 1.5-2.32 3.642 0 2.809 2.18 5.184 6.58 5.184 4.29 0 6.6-2.275 6.6-5.192zm-2.83-1.125c0 1.741-1.55 2.692-3.78 2.692-2.22 0-3.74-.934-3.74-2.692 0-1.726 1.45-2.692 3.74-2.692 2.28 0 3.78.983 3.78 2.692zm-14.45-11.882v3.551h17.07v-3.551h-17.07zm17.32-7.931c0-3.167-1.54-5.3-3.92-5.8l-.22 3.283c.98.359 1.49 1.276 1.49 2.459 0 1.775-1.18 2.901-3.09 2.901v-8.718h-.98c-4.35 0-6.5 2.633-6.5 6.017 0 3.767 2.68 6.209 6.63 6.209 4.05 0 6.59-2.408 6.59-6.351zm-7.94 2.843c-1.46-.076-2.63-1.184-2.63-2.759 0-1.542 1.1-2.609 2.63-2.617v5.376zm7.69-10.288v-3.55h-7.24c-1.58 0-2.66-1.15-2.66-2.717 0-.492.08-1.167.19-1.5h-3.15c-.08.316-.13.758-.13 1.116 0 1.434.84 2.609 2.42 3.076v.133h-2.23v3.442h12.8zm-9.15-19.507c-2.36.317-3.82 2.217-3.82 5.451 0 3.275 1.52 5.434 3.98 5.425 1.92.009 3.16-1.2 3.66-3.7l.44-2.217c.23-1.117.64-1.625 1.28-1.642.76.017 1.3.842 1.3 2.084 0 1.266-.54 2.108-1.58 2.325l.18 3.492c2.45-.333 3.96-2.417 3.96-5.809 0-3.317-1.69-5.692-4.22-5.701-1.85.009-2.96 1.217-3.47 3.701l-.46 2.317c-.26 1.191-.67 1.633-1.29 1.625-.76.008-1.26-.859-1.26-1.959 0-1.233.67-1.967 1.5-2.142l-.2-3.25z" fill="#fff"></path><rect x="796.727" y="430.588" width="49.785" height="245.41" rx="3.749" fill="#53777A"></rect><path d="M816.636 645.018v-3.458c-3.042.05-5.142 2.55-5.142 6.35 0 3.742 2.067 6.485 5.167 6.468 2.517.008 3.959-1.767 4.651-4.651l.467-1.858c.45-1.859.983-2.892 2.133-2.901 1.25.009 2.1 1.192 2.1 3.026 0 1.875-.866 3.225-2.575 3.342v3.492c3.692-.092 5.601-2.734 5.601-6.876 0-4.167-1.992-6.618-5.118-6.626-2.842.008-4.35 2.15-5.017 5.117l-.367 1.534c-.341 1.484-.891 2.725-2.117 2.7-1.1 0-1.908-.975-1.908-2.742 0-1.725.783-2.783 2.125-2.917zm12.41-11.089c0-3.409-2-5.551-4.942-5.718v3.351c1.367.208 2.133 1.108 2.133 2.325 0 1.659-1.391 2.734-3.842 2.734-2.417 0-3.8-1.084-3.8-2.734 0-1.3.858-2.134 2.133-2.325v-3.351c-2.958.15-4.9 2.392-4.9 5.734 0 3.884 2.692 6.285 6.617 6.285 3.892 0 6.601-2.359 6.601-6.301zm-7.651-10.794c-1.65-.008-2.617-1.017-2.617-2.467 0-1.442.925-2.292 2.5-2.283h7.518v-3.551h-8.151c-3-.008-4.817 1.759-4.817 4.426 0 1.942.917 3.242 2.425 3.825v.15h-6.526v3.451h17.069v-3.551h-7.401zm7.651-16.182c0-3.167-1.542-5.3-3.917-5.8l-.217 3.283c.975.359 1.484 1.275 1.484 2.459 0 1.775-1.175 2.9-3.084 2.9h-.008v-8.717h-.975c-4.351 0-6.501 2.633-6.501 6.017 0 3.767 2.675 6.209 6.626 6.209 4.058 0 6.592-2.409 6.592-6.351zm-7.943 2.842c-1.458-.075-2.625-1.183-2.625-2.758 0-1.542 1.1-2.609 2.625-2.617v5.375zm7.693-10.287v-3.55h-7.684c-1.417 0-2.359-.901-2.359-2.084 0-1.167.8-1.95 2.059-1.95h7.984v-3.442h-7.818c-1.325 0-2.225-.759-2.225-2.051 0-1.133.709-1.983 2.134-1.983h7.909v-3.542h-8.609c-2.776 0-4.359 1.65-4.359 4.033 0 1.876.958 3.334 2.425 3.859v.134c-1.483.408-2.425 1.717-2.425 3.475 0 1.725.917 3.034 2.425 3.567v.15h-2.259v3.384h12.802zm.242-24.31c0-1.892-.825-3.117-2.017-3.742v-.1h1.775v-3.367h-8.634c-3.051 0-4.334 2.583-4.334 5.434 0 3.067 1.467 5.084 3.8 5.576l.267-3.284c-.85-.242-1.475-1-1.475-2.276 0-1.208.608-1.9 1.658-1.9h.05c.825 0 .934.875 1.15 3.101.234 2.533 1.084 4.809 3.943 4.809 2.533 0 3.817-1.809 3.817-4.251zm-2.451-1.017c0 1.092-.508 1.875-1.483 1.875-1 0-1.492-.825-1.667-2.075-.108-.775-.292-2.042-.575-2.467h1.358c1.342 0 2.367 1.109 2.367 2.667zm-10.593-24.819v3.759l9.16 2.65v.134l-9.16 2.658v3.751l12.802-4.476v-4l-12.802-4.476zm13.044-4.353c0-1.892-.825-3.117-2.017-3.742v-.1h1.775V537.8h-8.634c-3.051 0-4.334 2.583-4.334 5.434 0 3.067 1.467 5.084 3.8 5.576l.267-3.284c-.85-.242-1.475-1-1.475-2.276 0-1.208.608-1.9 1.658-1.9h.05c.825 0 .934.875 1.15 3.101.234 2.533 1.084 4.809 3.943 4.809 2.533 0 3.817-1.809 3.817-4.251zm-2.451-1.017c0 1.092-.508 1.876-1.483 1.876-1 0-1.492-.826-1.667-2.076-.108-.775-.292-2.042-.575-2.467h1.358c1.342 0 2.367 1.109 2.367 2.667zm-14.86-11.75v3.551h17.069v-3.551h-17.069zm17.069-2.096v-3.551h-12.802v3.551h12.802zm-14.452-1.784c0-1.058-.808-1.925-1.8-1.925-.983 0-1.792.867-1.792 1.925 0 1.05.809 1.917 1.792 1.917.992 0 1.8-.867 1.8-1.917zm14.66-8.581c0-2.067-1.191-3.142-2.258-3.634v-.15h2.05v-3.5h-17.069v3.542h6.418v.108c-1.042.475-2.317 1.501-2.317 3.642 0 2.809 2.183 5.184 6.584 5.184 4.284 0 6.592-2.275 6.592-5.192zm-2.825-1.125c0 1.742-1.55 2.692-3.784 2.692-2.217 0-3.742-.933-3.742-2.692 0-1.725 1.459-2.692 3.742-2.692 2.284 0 3.784.983 3.784 2.692zm2.859-11.981c0-1.892-.825-3.117-2.017-3.742v-.1h1.775v-3.368h-8.634c-3.051 0-4.334 2.584-4.334 5.434 0 3.068 1.467 5.084 3.8 5.576l.267-3.284c-.85-.241-1.475-1-1.475-2.275 0-1.208.608-1.9 1.658-1.9h.05c.825 0 .934.875 1.15 3.1.234 2.534 1.084 4.809 3.943 4.809 2.533 0 3.817-1.808 3.817-4.25zm-2.451-1.017c0 1.092-.508 1.875-1.483 1.875-1 0-1.492-.825-1.667-2.075-.108-.775-.292-2.042-.575-2.467h1.358c1.342 0 2.367 1.108 2.367 2.667zm-10.593-15.009v2.409h-3.067v3.55h3.067v1.75h2.667v-1.75h6.668c2.509.017 3.75-1.692 3.642-4.267a6.916 6.916 0 00-.333-1.925l-2.642.558c.033.175.116.55.116.884 0 .708-.266 1.2-1.25 1.2h-6.201v-2.409h-2.667zm12.802-1.565v-3.551h-12.802v3.551h12.802zm-14.452-1.784c0-1.058-.808-1.925-1.8-1.925-.983 0-1.792.867-1.792 1.925 0 1.05.809 1.917 1.792 1.917.992 0 1.8-.867 1.8-1.917zm14.702-9.647c0-3.884-2.659-6.301-6.601-6.301-3.967 0-6.617 2.417-6.617 6.301 0 3.883 2.65 6.3 6.617 6.3 3.942 0 6.601-2.417 6.601-6.3zm-2.75-.017c0 1.792-1.642 2.709-3.876 2.709-2.233 0-3.884-.917-3.884-2.709 0-1.759 1.651-2.675 3.884-2.675 2.234 0 3.876.916 3.876 2.675zm-4.901-11.396c-1.65-.008-2.617-.992-2.617-2.425 0-1.425.934-2.284 2.5-2.276h7.518v-3.55h-8.151c-2.984 0-4.817 1.75-4.817 4.417 0 1.9.933 3.276 2.425 3.851v.15h-2.259v3.384h12.802v-3.551h-7.401z" fill="#fff"></path><path d="M686.9 357v-3.185h-6.371V357h6.371zm-3.186 73.103l18.392-31.855h-36.783l18.391 31.855zM680.529 357v44.434h6.371V357h-6.371zm34.584 71v3.185h6.371V428h-6.371zm3.186-74.349l-18.392 31.855h36.783l-18.391-31.855zM721.484 428v-45.679h-6.371V428h6.371zm205.634-71v-3.185h-6.371V357h6.371zm-3.185 74.185l18.391-31.855h-36.783l18.392 31.855zM920.747 357v45.516h6.371V357h-6.371zm34.584 71v3.185h6.371V428h-6.371zm3.186-73.266l-18.392 31.854h36.783l-18.391-31.854zM961.702 428v-44.597h-6.371V428h6.371z" fill="#B8E986"></path><path d="M648.537 119.491c-4.064 7.533-12.811 10.302-20.144 6.558-1.546-.795-3.656-1.612-5.202-2.406-.64-.34-.596-.317-.596.386v14.319c-.022.227.088.317.309.317l2.109-.558c.685-.023 1.348.091 1.944.408.199.091.353.114.552 0 1.149-.567 2.319-.544 3.468-.022.243.113.42.091.641-.023.773-.386 1.59-.476 2.429-.318 1.966.386 3.291 2.043 3.313 4.13.023 1.316 0 2.61 0 3.926 0 .386.023.749-.066 1.135-.066.34-.044.34.309.34h10.559c.331 0 .481.016.548-.045l1.815.045c.088 0 .088.265 0 .794h-13.098c-.309 0-.552.068-.818.295-.927.817-2.164.794-3.092 0-.464-.385-.486-.385-.928 0-.927.794-2.186.817-3.114.023-.42-.386-.552-.386-.839-.114-.906.908-2.474.931-3.358-.022a.515.515 0 00-.419-.182l-75.045.559c-.309 0-.64.022-.927-.136.221-.477.464-.545.751-.545h6.195c-.287-.794-.441-1.43-.441-2.133a654.934 654.934 0 00-.111-6.422c-.066-3.744-.132-7.511-.221-11.255-.022-.999-.066-1.997-.066-2.996 0-1.429 1.038-2.518 2.43-2.541 1.038-.023 2.076 0 3.136 0h7.113c1.236 0 2.473.045 3.71.045 1.348 0 2.474 1.203 2.386 2.519-.022.318 0 .658 0 .976.707-.023 1.193-.159 1.723-.182 2.407-.113 4.528 1.702 4.749 4.108.243 2.564-1.414 4.788-3.866 5.128-.839.113-1.656.023-2.429-.318-.354-.159-.354-.136-.354.227l-.066 3.812c-.044 2.429-.111 4.857-.155 7.285a2.593 2.593 0 01-.574 1.543c.221.249.331.249.42.249h15.185c-3.379-2.065-4.969-4.833-4.969-8.532 0-.885.176-1.77.463-2.61 2.982-8.804 5.964-17.609 8.946-26.39a4.251 4.251 0 00.243-1.748c-.066-.862-.022-1.747-.044-2.609l-.199-9.259c-.044-1.86-.066-3.744-.11-5.605a818.402 818.402 0 01-.177-7.51l-.133-6.695c-.044-2.201-.11-4.425-.176-6.626-.022-.953-.022-1.883-.045-2.837 0-.521 0-.521-.485-.476-2.01.181-3.755-.431-5.257-1.815-2.673-2.497-2.806-7.035-.288-9.69 1.701-1.793 3.777-2.473 6.185-2.042.287-.477.111-.772.022-1.067-.729-2.178-1.281-4.425-1.391-6.74-.089-1.701.066-3.38.662-4.969 1.127-3.04 3.291-4.856 6.317-5.65a8.536 8.536 0 012.519-.318c.309 0 .463-.09.596-.386a11.95 11.95 0 011.436-2.61c1.634-2.268 3.843-3.585 6.516-4.107.419-.09.839-.022 1.237-.204h2.23c.332.182.685.091 1.039.136 1.369.182 2.672.659 3.998 1.09 11.817 3.835 23.612 7.67 35.407 11.527.486.136.596.25.596.431 0 .16-.088.273-.243.318a6.02 6.02 0 01-.353.136c-1.922.75-3.866 1.498-5.787 2.247-.575.227-.575.25-.376.476.376.409.773.794 1.171 1.203.972.998 1.944 2.02 2.915 3.018.42.477.354.749-.044.84-.419.09-.839.159-1.259.25l-4.638.884c-.376.091-.376.182-.287.318 1.347 1.997 2.518 3.721 3.688 5.469.089.113.177.227.221.363.111.272-.066.522-.353.476-.133-.022-.265-.068-.398-.113-.972-.318-1.944-.635-2.938-.953a2.095 2.095 0 00-.353-.114c-.11.273-.066.363-.044.477.795 2.428 1.126 4.947 1.038 7.51-.088 2.157-.552 4.244-1.303 6.241-1.06 2.882-2.364 5.628-3.733 8.351-3.733 7.375-7.908 14.5-12.06 21.626-1.811 3.108-3.645 6.217-5.412 9.349-.221.363-.353.748-.309 1.18.044.363-.11.771.066 1.066.177.295.597.363.906.522 2.938 1.52 6.416 3.041 9.354 4.561 1.9.976 4.064.681 5.633-.749.53-.499.927-1.089 1.237-1.747 1.082-2.337 2.142-4.697 3.224-7.034 2.496-5.469 4.451-10.915 6.925-16.407.442-.976.751-2.042 1.082-3.063.133-.409.464-.817.332-1.226-.111-.363-.486-.658-.751-.975-.552-.659-1.127-1.294-1.679-1.975-1.171-1.43-.574-3.562 1.149-4.084.972-.295 1.855-.114 2.562.68.287.296.53.636.817.93.265.296.265.296.464-.022.53-.907 1.06-1.792 1.59-2.7.486-.817.972-1.657 1.458-2.474.398-.658.928-1.134 1.679-1.293.95-.227 1.767.045 2.407.772.641.703.774 1.565.508 2.496a3.586 3.586 0 01-.353.794c-.464.749-.906 1.52-1.369 2.27-.067.112-.243.271-.155.362 1.215-.84 2.098-1.543 2.982-2.224.729-.567 1.458-1.157 2.187-1.702 1.457-1.066 3.423-.317 3.865 1.453.221.93.022 1.77-.663 2.45-.243.25-.508.454-.795.636.155.136.309.023.464-.046.552-.227 1.104-.476 1.679-.68.972-.34 2.076 0 2.717.817.662.84.773 1.996.243 2.904-.288.5-.685.862-1.215 1.09-.862.362-1.701.703-2.54 1.066-.133.045-.266.113-.398.159.552.272.972.499 1.347.862a2.69 2.69 0 01.619 2.86c-.376.975-1.237 1.588-2.319 1.565a526.901 526.901 0 01-5.986-.181c-.972-.046-.928-.046-1.524.771-1.259 1.793-1.514 3.835-2.441 5.81-1.237 2.677-2.452 5.355-3.667 8.032a5558.85 5558.85 0 01-5.787 12.504z" fill="#151D38"></path><path d="M607.621 114.01c1.127 0 2.165-.068 3.181-.205 3.932-.453 7.554-1.747 10.911-3.88.221-.136.376-.318.508-.545 1.922-3.426 3.91-6.807 5.898-10.211 3.556-6.081 7.09-12.163 10.359-18.426 1.745-3.313 3.38-6.694 4.771-10.189 1.9-4.765 1.988-9.553.354-14.387-.133-.43-.376-.635-.773-.771-11.177-3.585-22.354-7.17-33.53-10.779-1.016-.317-2.01-.658-3.026-.975-.486-.16-.398-.182-.574.317-.045.09-.067.204-.111.318-.729 1.974-1.789 3.699-3.247 5.174-2.253 2.314-4.97 3.79-7.996 4.72-.11.045-.243.068-.353.113-.133.045-.111.114 0 .159.177.113.375.204.552.34.177.114.199.295.088.477-.088.181-.265.181-.419.113-.111-.045-.221-.113-.332-.181-3.887-2.224-8.702.476-8.945 5.037-.199 3.767 2.893 7.012 6.913 6.468.884-.114.884-.136.906.771.044 1.929.066 3.835.11 5.764.067 2.519.133 5.038.177 7.556.044 1.861.088 3.745.11 5.605.045 2.633.111 5.265.155 7.897l.066 3.858c.045 2.337.111 4.674.177 7.012.044 1.384.088 2.745.088 4.13 0 .408.133.612.464.817 4.197 2.609 8.747 3.857 13.518 3.903z" fill="#FAE0D6"></path><path d="M622.305 124.608V111.22c0-.772 0-.681-.574-.341-5.633 3.291-11.663 4.38-18.024 3.359-3.335-.522-6.45-1.702-9.365-3.472-.464-.295-.442-.363-.641.272-2.96 8.759-5.942 17.541-8.901 26.3a7.968 7.968 0 00-.398 3.381c.353 4.244 3.843 7.534 7.996 7.534 5.235 0 10.47-.022 15.682.023 1.635.023 3.512-1.157 3.689-3.449 0-.136-.022-.273.066-.363.221-.227.177-.5.177-.772v-3.994c0-.385-.022-.385-.397-.385H597.5c-.596-.023-1.104-.227-1.524-.659-.817-.794-.95-1.747-.618-2.791.972-3.04 1.966-6.081 2.96-9.145.044-.113.066-.249.132-.363.088-.159.243-.204.42-.136a.265.265 0 01.176.341c-.044.181-.088.34-.154.521l-2.916 8.987c-.442 1.384.354 2.541 1.767 2.564h23.966c.552 0 .596.113.574-.59v-.273c.022-4.379.022-8.759.022-13.161zm.916-6.991v4.515c0 .341.089.545.398.726 1.833.931 3.645 1.907 5.5 2.837a12.97 12.97 0 005.08 1.384c4.042.25 7.599-.998 10.647-3.721 1.678-1.498 2.871-3.336 3.755-5.401.132-.295 4.837-10.529 5.014-10.938a375.768 375.768 0 012.363-5.219l1.06-2.314c.089-.182.089-.296-.11-.386-.088-.023-.155-.091-.243-.114-1.635-.794-3.247-1.588-4.882-2.36l-2.252-1.089c-.221-.113-.354-.09-.442.159l-.332.749c-2.805 6.127-5.61 12.254-8.393 18.358-.486 1.066-1.215 1.929-2.209 2.519-1.811 1.066-3.689 1.157-5.566.181-2.96-1.52-5.92-3.063-8.879-4.606-.111-.069-.221-.114-.332-.182-.11-.045-.177 0-.177.113v4.789z" fill="#EBBE62"></path><path d="M564.413 123.425v-.023h-2.54c-1.458 0-2.938-.023-4.396 0-1.104.023-1.811.749-1.833 1.884 0 .522.022 1.043.022 1.588.044 3.018.088 6.059.155 9.077 0 .613.044 1.225.066 1.838 0 .272.11.363.353.34h.265c5.191 0 10.382.023 15.573.023.132 0 .242-.023.375 0 .265.023.376-.068.376-.363 0-.499.022-.976.022-1.475.022-.681.022-1.384.044-2.065.022-.386.243-.522.574-.34.088.045.177.113.265.181 1.9 1.157 4.374.409 5.39-1.611s.11-4.561-1.922-5.423c-1.215-.522-2.386-.409-3.512.249-.442.25-.619.159-.641-.363 0-.522-.022-1.044.022-1.588.089-.999-.773-1.975-1.899-1.952-2.231.046-4.484.023-6.759.023z" fill="#fff"></path><path d="M667.464 91.978v.023h.64c1.038-.023 1.834-.817 1.856-1.838.022-.999-.751-1.884-1.745-1.975a14.572 14.572 0 01-.994-.09c-.287-.023-.552 0-.817.136-.84.363-1.657.703-2.496 1.044-.133.045-.266.113-.398.136-.155.022-.287-.023-.353-.182-.067-.181-.023-.317.154-.408.111-.068.221-.114.331-.159a953.058 953.058 0 007.201-3.018c.221-.09.42-.182.619-.295a1.818 1.818 0 00.817-1.952c-.265-1.225-1.436-1.86-2.584-1.407-1.392.568-2.783 1.158-4.175 1.725-.221.09-.398.204-.596.363-.906.726-1.812 1.43-2.739 2.156-.177.136-.376.181-.508 0-.155-.182-.067-.363.11-.522.066-.045.133-.114.199-.159 1.215-.953 2.407-1.906 3.622-2.836.729-.568 1.48-1.135 2.165-1.748.773-.68.817-1.77.177-2.587-.619-.771-1.657-.93-2.474-.363a2.47 2.47 0 00-.376.295 655.46 655.46 0 00-6.184 4.857c-.199.158-.42.363-.663.158-.265-.227-.022-.476.088-.68.597-.999 1.193-1.975 1.767-2.973.31-.5.619-1.021.884-1.543.464-.93.177-1.929-.641-2.474-.817-.522-1.833-.34-2.451.5-.221.295-.398.59-.597.907-.994 1.68-1.988 3.381-2.982 5.083-.287.477-.419.477-.795.068-.397-.453-.795-.93-1.193-1.384-.53-.59-1.192-.749-1.921-.499a1.876 1.876 0 00-.84 2.995c.751.93 1.547 1.838 2.342 2.746.353.386.375.703.221 1.18-.398 1.021-.729 2.088-1.083 3.132-.154.453-.154.453.243.658.707.34 1.436.68 2.165 1.043 1.656.795 3.313 1.612 4.97 2.406.464.227.464.227.773-.25.419-.658.861-1.293 1.237-1.951.221-.363.464-.477.861-.454a75.19 75.19 0 002.275.09c1.326-.022 2.607 0 3.888.046zm-46.472 47.049h-4.131c-.398 0-.398 0-.398.431v8.056c0 .431 0 .431.398.431h7.157c.353 0 .331 0 .287-.385-.022-.182-.022-.364-.022-.545v-4.561c0-.204.132-.318.287-.318.199 0 .331.114.353.341v.431c0 1.407-.022 2.791 0 4.198.022 1.044.84 1.815 1.834 1.747.883-.068 1.546-.817 1.546-1.815v-4.403c0-2.065-1.48-3.562-3.49-3.562-1.281-.046-2.562-.046-3.821-.046z" fill="#FAE0D6"></path><path d="M564.623 142.959v-.023h-7.996c-.398 0-.42.023-.42.431l.067 3.109c0 1.157.971 1.997 2.01 1.974 4.196-.045 8.393-.045 12.612 0 .972 0 2.01-.749 2.01-2.042 0-1.021.044-2.02.066-3.041 0-.34-.022-.363-.353-.386h-.376c-2.54-.022-5.08-.022-7.62-.022z" fill="#fff"></path><path d="M633.552 144.694v1.86c0 .273 0 .545.022.817.088.681.486 1.158 1.127 1.385.618.226 1.192.068 1.678-.364.376-.34.552-.794.552-1.316v-4.674c0-.114-.022-.227-.044-.318-.221-2.11-2.363-3.54-4.329-2.905-.398.137-.42.159-.133.477.751.817 1.105 1.793 1.105 2.927.022.704.022 1.407.022 2.111zm-4.546-.054v2.383c.022 1.044.751 1.815 1.723 1.815.95 0 1.657-.771 1.679-1.792.022-.726 0-1.453 0-2.179 0-.862.022-1.747-.022-2.609-.133-2.179-2.297-3.722-4.329-3.086-.398.136-.42.181-.155.476.751.84 1.126 1.815 1.104 2.973v2.019z" fill="#FAE0D6"></path><path d="M658.45 95.425c0-.182-.132-.204-.243-.25-.574-.272-1.148-.544-1.722-.84l-5.5-2.654c-.398-.182-.398-.182-.575.204-.397.885-.795 1.77-1.214 2.655-.111.227-.111.386.154.5.398.158.773.362 1.149.544 2.032.998 4.086 1.974 6.118 2.972.331.16.331.16.508-.181.42-.908.817-1.793 1.237-2.7.022-.091.066-.182.088-.25zm-45.365 48.029v4.085c0 .408.022.408.375.408h2.496c.354 0 .376-.022.376-.408v-7.942c0-.636.044-.568-.575-.568h-2.164c-.486 0-.486 0-.486.522-.022 1.294-.022 2.61-.022 3.903z" fill="#151D38"></path><path d="M564.748 139.585h-7.665c-.927 0-.927 0-.839.954v.113c0 .159.088.227.243.204h.265c2.474 0 4.948.023 7.422.023h8.062c.928 0 .95-.023.861-.953-.022-.204-.066-.295-.287-.295h-.265c-2.628-.023-5.257.045-7.797-.046z" fill="#E5384A"></path><path d="M612.101 147.532v-.545c0-.045 0-.114-.066-.136-.067-.023-.089.022-.111.068-.221.34-.464.635-.729.93-.132.136-.419.182-.353.409.044.113.331.045.508.045.773 0 .773 0 .751-.771z" fill="#fff"></path><path d="M572.407 100.149c0-1.135-.221-2.474-.685-3.79-.486-1.362-1.193-2.632-1.9-3.88-.596-1.044-1.192-2.088-1.7-3.2-.95-2.065-1.127-4.243-.84-6.49.199-1.543.575-3.018 1.281-4.402.288-.545.597-1.067.972-1.543.089-.091.155-.182.265-.273.133-.113.287-.113.42 0 .133.137.133.295.044.454a.6.6 0 01-.11.136c-1.127 1.362-1.723 2.95-2.054 4.652-.243 1.271-.354 2.542-.266 3.835.089 1.271.464 2.451.994 3.586.531 1.134 1.171 2.2 1.79 3.267.751 1.316 1.457 2.655 1.899 4.13.862 2.837.663 5.628-.464 8.351-.508 1.248-1.17 2.451-1.833 3.631-.53.953-1.06 1.883-1.502 2.882-.641 1.406-1.082 2.881-1.126 4.447-.023.431-.111.568-.354.545-.243-.023-.331-.182-.331-.59.066-1.747.552-3.381 1.303-4.947.596-1.248 1.281-2.428 1.944-3.631.839-1.52 1.59-3.086 1.966-4.811.176-.68.243-1.384.287-2.359zm-7.42.242c.022 2.314-.685 4.425-1.723 6.422-.751 1.429-1.547 2.859-2.297 4.288-.221.409-.398.863-.597 1.271-.088.182-.243.272-.442.182-.198-.091-.243-.25-.176-.454.022-.091.066-.182.088-.25.199-.431.376-.862.596-1.271.707-1.316 1.436-2.632 2.121-3.948.751-1.407 1.347-2.882 1.59-4.47.354-2.247.022-4.403-.883-6.468-.53-1.225-1.215-2.382-1.878-3.54-.618-1.066-1.193-2.133-1.656-3.29-.641-1.634-.796-3.336-.663-5.083a15.77 15.77 0 01.618-3.358c.045-.16.111-.318.177-.454a.269.269 0 01.331-.114c.155.046.243.16.243.318 0 .114-.044.25-.088.363-.508 1.634-.707 3.336-.663 5.038.045 1.248.376 2.428.884 3.562.442 1.021 1.016 1.997 1.568 2.973.751 1.316 1.502 2.632 2.032 4.062.552 1.361.84 2.768.818 4.221z" fill="#151D38"></path><path d="M568.846 100.965c0 2.201-.64 4.266-1.656 6.24-.597 1.18-1.259 2.315-1.878 3.472-.044.068-.088.159-.132.227-.111.159-.265.182-.42.091-.177-.091-.199-.25-.133-.431.067-.159.155-.318.243-.477.663-1.18 1.348-2.337 1.922-3.562.574-1.203 1.038-2.451 1.259-3.79.331-1.997.111-3.926-.596-5.81-.464-1.225-1.083-2.36-1.723-3.494-.619-1.089-1.259-2.156-1.767-3.29-.575-1.294-.95-2.655-.994-4.085 0-.136-.022-.25.022-.385.022-.16.155-.25.309-.25.155 0 .265.068.309.25.022.09.045.181.045.272.022 1.793.618 3.404 1.435 4.947.707 1.293 1.458 2.564 2.143 3.88.729 1.384 1.281 2.837 1.502 4.38.066.567.132 1.157.11 1.815zm-7.338-.43c0 2.223-.552 4.13-1.413 5.922-.288.59-.597 1.158-.884 1.725-.044.091-.11.181-.177.272-.11.136-.243.159-.375.091-.155-.091-.243-.227-.177-.408.066-.159.155-.318.243-.477.619-1.157 1.215-2.337 1.591-3.608.728-2.36.684-4.72-.133-7.057-.044-.136-.11-.273-.155-.409-.066-.204-.066-.408.155-.522.199-.09.375 0 .486.273.199.476.353.998.464 1.497.265.976.353 1.93.375 2.701zm67.694-34.111c-1.149 0-2.165-.114-3.159-.386-.22-.068-.375-.114-.508.181-.795 1.816-2.253 2.587-4.13 2.542-2.076-.046-3.865-1.43-4.418-3.359a3.827 3.827 0 01-.11-1.656c.066-.386.044-.409-.331-.522-2.43-.794-4.374-2.337-6.075-4.22-.066-.069-.132-.137-.154-.205-.133-.272.022-.522.309-.5.066 0 .133.023.199.046 2.076.613 4.152.567 6.229.09.552-.113 1.104-.203 1.656-.317 1.502-.25 2.651.295 3.534 1.566.31.454.31.454.818.25 1.347-.59 2.584-.409 3.71.544.597.522 1.149 1.09 1.701 1.634 1.392 1.339 2.982 2.36 4.837 2.95.221.068.486.09.486.408 0 .318-.287.34-.508.386-1.347.34-2.761.545-4.086.568z" fill="#151D38"></path><path d="M621.745 67.94c.067 0 .243-.023.42-.023s.265-.09.221-.272c-.155-.749-.442-1.407-1.038-1.906-.133-.091-.265-.273-.42-.205-.154.069 0 .25-.022.386-.022.182-.088.318-.265.34-.177.023-.309-.045-.353-.249-.045-.136-.067-.272-.111-.431-.132-.5-.309-.953-.663-1.339-.419-.477-.949-.68-1.568-.567-.265.045-.375.181-.353.43.022.319.044.614.132.909.464 1.724 2.077 2.927 4.02 2.927z" fill="#E5384A"></path><path d="M625.206 65.915c0-.182-.155-.205-.243-.25a7.119 7.119 0 01-1.767-1.18c-.376-.34-.707-.749-1.016-1.18-.088-.113-.133-.272-.331-.204a7.716 7.716 0 01-1.878.522c-.132.023-.177.113-.066.227.265.272.486.567.662.907.089.16.221.205.376.25.906.272 1.502.908 1.877 1.77.133.295.221.613.288.93.044.205.132.227.287.137.773-.364 1.369-.93 1.723-1.748a.461.461 0 00.088-.181z" fill="#fff"></path><path d="M608.117 59.057c0 2.133-1.678 3.857-3.732 3.835-2.055-.023-3.689-1.725-3.689-3.812 0-1.93 1.413-3.835 3.733-3.813 2.474 0 3.711 2.088 3.688 3.79zm33.789 9.561c0 2.11-1.657 3.79-3.711 3.79-2.076 0-3.711-1.725-3.711-3.858 0-2.11 1.679-3.813 3.711-3.79 2.099.023 3.733 1.702 3.711 3.858z" fill="#E5384A"></path><path d="M611.639 53.777c0 1.021-.817 1.884-1.811 1.884s-1.811-.817-1.811-1.861.773-1.86 1.789-1.883c1.016 0 1.811.816 1.833 1.86zm23.409 7.796c.022-1.044.839-1.86 1.833-1.838 1.016.023 1.789.862 1.767 1.906-.022 1.021-.862 1.86-1.855 1.838-.994-.023-1.768-.862-1.745-1.906zm-43.619-3.931c-1.7-.068-3.048 1.27-3.004 2.972.023 1.657 1.414 2.95 3.049 2.837.154 0 .309-.045.463-.045.177 0 .31.045.354.25.022.226-.066.362-.265.408a4.74 4.74 0 01-.795.09c-1.723-.022-3.203-1.338-3.446-3.018-.265-1.86.751-3.517 2.474-4.039.464-.136.927-.204 1.413-.113.221.045.42.09.442.363 0 .227-.177.317-.508.317-.088 0-.154-.022-.177-.022zm32.748-2.933c.155 0 .265.09.353.204a113.7 113.7 0 011.701 1.702c.354.363.287.59-.154.748-.751.273-1.502.5-2.253.75-.044.022-.111.022-.155.045-.199.068-.353.022-.42-.182-.088-.227.045-.386.243-.454.508-.181.994-.34 1.502-.499.508-.181.508-.181.111-.567-.332-.318-.663-.658-.994-.976a1.516 1.516 0 01-.243-.295c-.088-.25.066-.477.309-.477zm17.533 6.198a6.725 6.725 0 01-.133.749c-.088.34-.221.454-.441.409-.221-.046-.288-.205-.199-.568a2.8 2.8 0 00.088-.862c-.088-1.09-.596-1.86-1.546-2.36-.11-.068-.243-.09-.331-.159-.133-.09-.199-.227-.133-.363.066-.159.177-.272.376-.25.11.023.198.069.309.114 1.193.544 2.032 1.838 2.01 3.29zm-32.464-11.095c-1.303-.069-2.386.68-2.783 1.928-.133.431-.265.545-.486.477-.221-.068-.265-.272-.155-.658.442-1.498 1.833-2.632 3.689-2.405.088 0 .177.045.243.068a.338.338 0 01.177.363c-.023.181-.155.25-.288.25-.132.022-.287-.023-.397-.023z" fill="#151D38"></path><path fill-rule="evenodd" clip-rule="evenodd" d="M575.597 133.546c1.436 0 2.519-1.089 2.519-2.564s-1.083-2.587-2.519-2.564c-1.413 0-2.495 1.112-2.495 2.541 0 1.453 1.082 2.587 2.495 2.587zm-1.833-2.564c0-1.044.839-1.906 1.856-1.906 1.038 0 1.855.862 1.833 1.951-.022 1.022-.84 1.861-1.833 1.861-1.017 0-1.856-.862-1.856-1.906zm82.617-33.845c.596.023 1.082-.453 1.104-1.066.022-.613-.442-1.112-1.06-1.157-.574 0-1.082.499-1.104 1.089 0 .59.486 1.112 1.06 1.134zm.044-1.497c.221 0 .398.181.398.408a.402.402 0 01-.398.409c-.221-.023-.398-.205-.376-.431 0-.227.177-.386.376-.386z" fill="#151D38"></path><path fill-rule="evenodd" clip-rule="evenodd" d="M614.731 145.17c-.596-.023-1.082.477-1.082 1.089-.022.59.442 1.044 1.038 1.09.618.022 1.082-.432 1.104-1.044 0-.613-.464-1.135-1.06-1.135zm-.022.681c.221 0 .398.181.398.408 0 .227-.199.409-.398.386a.39.39 0 01-.375-.431c.022-.227.154-.363.375-.363z" fill="#EBBE62"></path><path fill-rule="evenodd" clip-rule="evenodd" d="M526.934 832.622a4.892 4.892 0 01-4.891 4.892 4.887 4.887 0 01-4.887-4.892 4.893 4.893 0 014.887-4.888 4.896 4.896 0 014.891 4.888zm6.322 0a4.891 4.891 0 109.782 0 4.896 4.896 0 00-4.891-4.888 4.893 4.893 0 00-4.891 4.888z" fill="#419EDA"></path><path fill-rule="evenodd" clip-rule="evenodd" d="M565.461 837.969c.375 0 .726-.013 1.08-.041l1.059-.084-.1 1.075c-.521 5.433-2.21 10.609-5.021 15.387l-.548.924-.822-.695a14.097 14.097 0 00-6.695-3.123 56.888 56.888 0 01-5.705 9.295 57.666 57.666 0 01-10.759 2.648 14.028 14.028 0 00.897 7.381l.409.999-1.055.234-8.092.895c-2.67 0-5.394-.3-8.094-.895l-1.054-.234.41-.999a14.043 14.043 0 00.9-7.372 57.656 57.656 0 01-10.802-2.657 57.207 57.207 0 01-5.701-9.286 14.056 14.056 0 00-6.661 3.119l-.821.699-.548-.932c-2.809-4.767-4.496-9.946-5.026-15.388l-.101-1.076 1.078.084a14.066 14.066 0 007.253-1.392 57.567 57.567 0 01-.814-11.055 57.242 57.242 0 017.094-8.392 14.11 14.11 0 00-4.996-5.337l-.918-.569.717-.81c3.625-4.089 8.145-7.385 13.067-9.53l.991-.431.257 1.053a14.05 14.05 0 003.53 6.419 56.678 56.678 0 0110.224-4.212 56.814 56.814 0 0110.239 4.219 14.086 14.086 0 003.544-6.434l.252-1.049.995.432c4.988 2.179 9.384 5.387 13.068 9.534l.718.81-.919.57a14.116 14.116 0 00-5.008 5.365 56.822 56.822 0 017.106 8.423 57.592 57.592 0 01-.835 10.983 14.116 14.116 0 006.207 1.445zm-35.366 14.676c3.864 0 7.75-.526 11.58-1.565a44.672 44.672 0 007.076-21.874 44.43 44.43 0 00-8.435-8.051 44.928 44.928 0 00-10.221-5.558 44.78 44.78 0 00-10.242 5.573 44.058 44.058 0 00-8.398 7.995c.202 3.956.9 7.797 2.092 11.466a44.796 44.796 0 004.958 10.449 44.209 44.209 0 0011.59 1.565z" fill="#419EDA"></path><path fill-rule="evenodd" clip-rule="evenodd" d="M616.568 831.411c0-13.772-6.935-22.59-19.219-22.59-10.997 0-21.595 9.612-21.595 25.363 0 15.755 10.203 25.167 23.081 25.167 6.537 0 11.688-2.279 15.848-4.954l-2.872-5.35c-3.567 2.279-7.43 3.766-11.986 3.766-9.21 0-15.453-6.54-16.048-16.944h32.493c.197-1.189.298-2.774.298-4.458zm-19.021-16.149c7.529 0 11.888 5.448 11.888 15.257h-25.756c.99-9.71 7.132-15.257 13.868-15.257zm28.231 1.386h-7.132v-6.142l7.528-.496.991-13.474h6.833v13.474h12.978v6.639h-12.978v26.752c0 5.945 1.885 9.313 7.431 9.313 1.685 0 3.864-.694 5.449-1.289l1.582 6.144c-2.673.891-5.942 1.784-8.915 1.784-10.301 0-13.769-6.539-13.769-16.051v-26.654h.002zm47.748-7.827c6.34 0 10.797 2.676 14.065 5.747l-4.06 5.25c-2.873-2.475-5.844-4.259-9.708-4.259-8.716 0-15.058 7.529-15.058 18.626 0 10.999 6.043 18.429 14.86 18.429 4.556 0 8.421-2.278 11.293-4.854l3.665 5.35c-4.359 3.864-9.907 6.242-15.653 6.242-12.776 0-22.584-9.215-22.584-25.167.001-16.149 10.798-25.364 23.18-25.364zm51.512 5.549c-4.261-3.468-7.925-5.549-13.472-5.549-10.995 0-20.902 9.71-20.901 25.363 0 16.052 7.825 25.167 19.91 25.167 5.648 0 10.797-3.17 14.562-6.837h.296l.696 5.647h6.734v-70.542h-8.222v18.528l.397 8.223zm-.397 31.508c-3.962 4.457-7.826 6.636-12.284 6.636-8.42 0-13.273-6.934-13.273-18.428 0-10.999 6.141-18.429 13.868-18.429 3.963 0 7.626 1.387 11.689 5.053v25.168z" fill="#000"></path></svg>